
<svg width="494px" height="487px" viewBox="0 0 494 487" version="1.1" xmlns="http://www.w3.org/2000/svg" xmlns:xlink="http://www.w3.org/1999/xlink">
    <!-- Generator: Sketch 48.1 (47250) - http://www.bohemiancoding.com/sketch -->
    <desc>Created with Sketch.</desc>
    <defs></defs>
    <g id="*-Documentation" stroke="none" stroke-width="1" fill="none" fill-rule="evenodd">
        <g id="Home-biome-text-Copy" transform="translate(-967.000000, 0.000000)" stroke="#4C1DBF">
            <g id="Page-1" transform="translate(1283.285018, 114.169241) scale(1, -1) rotate(-222.000000) translate(-1283.285018, -114.169241) translate(905.285018, -340.330759)">
                <path d="M190.848191,92.6665641 C190.848191,192.936685 213.213577,625.695092 235.586289,736.523335 C254.765514,831.56423 285.912986,889.573385 330.651084,889.573385 C364.200995,889.573385 384.068724,834.404885 403.343168,720.689711 C425.715879,588.752345 436.900404,182.385682 436.900404,97.9420653 C436.900404,48.4228362 434.966734,0 317.536552,0 C200.099045,0 190.848191,42.0900989 190.848191,92.6665641 Z" id="Stroke-1"></path>
                <path d="M462.669807,123.072945 C430.876905,211.06309 314.908331,598.02194 301.004923,702.481229 C289.087189,792.060095 300.264439,852.999143 342.737252,867.408306 C374.592783,878.218748 410.946475,836.208684 465.303866,742.63481 C528.370228,634.062698 667.827973,281.070342 694.60327,206.971687 C710.30447,163.519279 723.824742,120.402466 612.328543,82.569488 C500.836027,44.7365105 478.706251,78.6922951 462.669807,123.072945 Z" id="Stroke-3"></path>
                <path d="M522.165599,265.889246 C484.284461,338.587617 340.934261,662.14445 319.206142,752.302566 C300.572019,829.62022 306.700936,885.333623 346.978259,904.95665 C377.187174,919.671243 415.917499,888.385777 476.23195,814.402289 C546.21606,728.556455 709.802763,438.844613 741.702669,377.626624 C760.410634,341.725445 776.966094,305.770719 671.234891,254.266074 C565.503688,202.761429 541.272313,229.224136 522.165599,265.889246 Z" id="Stroke-5"></path>
                <path d="M7.4784994,296.640189 C36.7838113,378.827884 184.591094,726.457068 238.303966,810.212619 C284.362025,882.038214 330.995856,919.720195 373.625119,905.548919 C405.598912,894.923135 408.403955,843.411958 393.53723,744.099005 C376.28991,628.87232 268.166596,292.24663 243.482222,223.032939 C229.006727,182.4433 213.014294,143.364503 101.111555,180.55831 C-10.791185,217.752117 -7.30702698,255.184666 7.4784994,296.640189 Z" id="Stroke-7"></path>
                <path d="M222.393346,293.866117 C222.393346,371.203174 244.758733,704.97758 267.127782,790.456697 C286.31067,863.760269 317.458142,908.500479 362.196239,908.500479 C395.746151,908.500479 415.61388,865.948649 434.888324,778.245395 C457.261035,676.485733 468.445559,363.064689 468.445559,297.935359 C468.445559,259.74241 466.511889,222.393346 349.078045,222.393346 C231.644201,222.393346 222.393346,254.857889 222.393346,293.866117 Z" id="Stroke-9"></path>
            </g>
        </g>
    </g>
</svg>
