
<svg width="116px" height="136px" viewBox="0 0 116 136" version="1.1" xmlns="http://www.w3.org/2000/svg" xmlns:xlink="http://www.w3.org/1999/xlink">
    <!-- Generator: Sketch 48.1 (47250) - http://www.bohemiancoding.com/sketch -->
    <desc>Biome text.</desc>
    <defs></defs>
    <g id="*-Documentation" stroke="none" stroke-width="1" fill="none" fill-rule="evenodd">
        <g id="Home-biome-text-Copy" transform="translate(-671.000000, -97.000000)" fill-rule="nonzero">
            <g id="Recurso-1" transform="translate(671.000000, 97.000000)">
                <path d="M29.7536723,13.880678 C29.7536723,28.9082486 33.1746893,93.7371751 36.5957062,110.344181 C39.5317514,124.578757 44.2962712,133.282034 51.1383051,133.282034 C56.2698305,133.282034 59.3107345,125.017853 62.279548,107.984859 C65.700565,88.2189831 67.4110734,27.3353672 67.4110734,14.6867797 C67.3914124,7.25491525 67.0964972,0 49.1525424,0 C31.2085876,0 29.7536723,6.30463277 29.7536723,13.880678 Z" id="Shape" fill="#4C10BC"></path>
                <path d="M71.0287006,18.3502825 C66.1920904,31.4903955 48.5627119,89.2937853 46.4458757,104.898079 C44.6305085,118.280678 46.3344633,127.377175 52.7898305,129.533333 C57.6329944,131.145537 63.1642938,124.873672 71.4284746,110.894689 C81.0164972,94.6743503 102.230734,41.9500565 106.294011,30.880904 C108.679548,24.3862147 110.730847,17.9505085 93.7830508,12.2946893 C76.8352542,6.63887006 73.4666667,11.7179661 71.0287006,18.3502825 Z" id="Shape" fill="#FFB493"></path>
                <path d="M80.2103955,39.859435 C74.4628249,50.7188701 52.6849718,99.0587571 49.4081356,112.526554 C46.5835028,124.080678 47.5141243,132.403842 53.6221469,135.333333 C58.2097175,137.528814 64.1080226,132.856045 73.2307345,121.806554 C83.8476836,108.981017 108.666441,65.700565 113.509605,56.5516384 C116.347345,51.1907345 118.857401,45.8167232 102.820565,38.1227119 C86.7837288,30.4287006 83.1071186,34.380565 80.2103955,39.859435 Z" id="Shape" fill="#6A29E2" opacity="0.85"></path>
                <path d="M1.78915254,44.3487006 C6.23909605,56.6499435 28.659209,108.672994 36.8185311,121.210169 C43.8112994,131.958192 50.8892655,137.59435 57.3577401,135.477514 C62.2140113,133.891525 62.600678,126.177853 60.3789831,111.314124 C57.7575141,94.0714124 41.3733333,43.6933333 37.6049718,33.3254237 C35.4094915,27.2501695 32.9846328,21.4042938 15.9778531,26.9683616 C-1.02892655,32.5324294 -0.45220339,38.1423729 1.78915254,44.3487006 Z" id="Shape" fill="#FF8373"></path>
                <path d="M34.459209,44.0472316 C34.459209,55.5816949 37.880226,105.356836 41.3012429,118.103729 C44.2372881,129.035254 49.0018079,135.706893 55.8438418,135.706893 C60.9753672,135.706893 64.0162712,129.362938 66.9850847,116.281808 C70.379887,101.110056 72.0903955,54.3954802 72.0903955,44.6501695 C72.0903955,38.9550282 71.7954802,33.3844068 53.8384181,33.3844068 C35.8813559,33.3844068 34.459209,38.2275706 34.459209,44.0472316 Z" id="Shape" fill="#F7D4B9" opacity="0.85"></path>
            </g>
        </g>
    </g>
</svg>