
<svg width="96px" height="101px" viewBox="0 0 96 101" version="1.1" xmlns="http://www.w3.org/2000/svg" xmlns:xlink="http://www.w3.org/1999/xlink">
    <!-- Generator: Sketch 48.1 (47250) - http://www.bohemiancoding.com/sketch -->
    <desc>Created with Sketch.</desc>
    <defs></defs>
    <g id="Ecosystem--v3" stroke="none" stroke-width="1" fill="none" fill-rule="evenodd">
        <g id="Ecosystem-flow-1" transform="translate(-1032.000000, -735.000000)" fill="#9FCDC3">
            <g id="Page-1" transform="translate(1032.000000, 735.000000)">
                <path d="M34.9992,100.1521 L59.9992,100.2611 L60.4362,0.2621 L35.4362,0.1531 L34.9992,100.1521 Z M36.0032,99.1571 L36.4322,1.1571 L59.4312,1.2571 L59.0042,99.2571 L36.0032,99.1571 Z" id="Fill-1"></path>
                <path d="M0.4365,0.0001 L0.0005,99.9991 L24.9995,100.1081 L25.4365,0.1091 L0.4365,0.0001 Z M1.0045,99.0041 L1.4315,1.0041 L24.4325,1.1051 L24.0035,99.1041 L1.0045,99.0041 Z" id="Fill-2"></path>
                <path d="M69.9993,100.3051 L94.9993,100.4141 L95.4363,0.4151 L70.4363,0.3061 L69.9993,100.3051 Z M71.0033,99.3091 L71.4323,1.3101 L94.4313,1.4101 L94.0033,99.4101 L71.0033,99.3091 Z" id="Fill-3"></path>
            </g>
        </g>
    </g>
</svg>