
<svg width="206px" height="64px" viewBox="0 0 206 64" version="1.1" xmlns="http://www.w3.org/2000/svg" xmlns:xlink="http://www.w3.org/1999/xlink">
    <!-- Generator: Sketch 48.1 (47250) - http://www.bohemiancoding.com/sketch -->
    <desc>Biome logo</desc>
    <defs></defs>
    <g id="*-Documentation" stroke="none" stroke-width="1" fill="none" fill-rule="evenodd">
        <g id="Prueba-2" transform="translate(-58.000000, -29.000000)" fill-rule="nonzero">
            <g id="Group-3" transform="translate(57.000000, 29.000000)">
                <g id="Recurso-1">
                    <path d="M74.89,53.22 C73.4301345,53.0133048 71.9912635,52.6786836 70.59,52.22 L70.59,15.86 C70.59,14.4737653 71.7137653,13.35 73.1,13.35 L73.2,13.35 C74.5823279,13.3555073 75.700011,14.4776611 75.7,15.86 L75.7,29.06 L76,29.06 C76.8383382,28.0622876 77.8958329,27.2717334 79.09,26.75 C82.1436126,25.4780551 85.6119371,25.6770875 88.5,27.29 C90.1325825,28.3312406 91.4092456,29.845098 92.16,31.63 C93.1509199,34.0233626 93.6180513,36.6011096 93.53,39.19 C93.5166667,43.9633333 92.34,47.5666667 90,50 C87.66,52.4333333 84.1766667,53.6333333 79.55,53.6 C77.9896759,53.5828039 76.4324961,53.4558236 74.89,53.22 Z M86.23,47.22 C87.6166667,45.66 88.3133333,43.15 88.32,39.69 C88.32,36.24 87.72,33.82 86.54,32.41 C85.2842245,30.9783269 83.4417948,30.2008216 81.54,30.3 C80.4332597,30.2915961 79.3368151,30.5129281 78.32,30.95 C77.3026851,31.3890526 76.4120608,32.0767934 75.73,32.95 L75.73,48 C75.7274956,48.595963 76.1460717,49.1108116 76.73,49.23 C77.7702719,49.4390445 78.828936,49.5429008 79.89,49.54 C82.72,49.52 84.83,48.74 86.23,47.17 L86.23,47.22 Z" id="Shape" fill="#3F3D44"></path>
                    <path d="M100,20.36 C99.400957,19.794866 99.0855767,18.9917464 99.14,18.17 C99.1011185,17.3566255 99.4144863,16.5659184 100,16 C101.502029,14.952343 103.497971,14.952343 105,16 C105.596376,16.5752443 105.91069,17.3829563 105.86,18.21 C105.914423,19.0317464 105.599043,19.834866 105,20.4 C103.485873,21.4084291 101.514127,21.4084291 100,20.4 L100,20.36 Z M100,53.09 L100,28.84 C100.005507,27.4576721 101.127661,26.339989 102.51,26.34 L102.63,26.34 C103.294772,26.3373409 103.933229,26.5995586 104.404235,27.0686881 C104.875241,27.5378176 105.140005,28.1752225 105.14,28.84 L105.14,53.09 L100,53.09 Z" id="Shape" fill="#3F3D44"></path>
                    <path d="M114.82,50.15 C112.733333,47.8633333 111.686667,44.4 111.68,39.76 C111.68,35.11 112.68,31.63 114.79,29.35 C116.9,27.07 119.79,25.92 123.56,25.92 C127.33,25.92 130.25,27.06 132.32,29.34 C134.39,31.62 135.43,35.08 135.43,39.74 C135.43,44.4 134.43,47.82 132.3,50.12 C130.17,52.42 127.3,53.58 123.56,53.58 C119.82,53.58 116.91,52.43 114.82,50.15 Z M128.55,47.31 C129.683333,45.8233333 130.25,43.3233333 130.25,39.81 C130.25,36.2966667 129.683333,33.76 128.55,32.2 C127.285598,30.7630163 125.464062,29.9395 123.55,29.9395 C121.635938,29.9395 119.814402,30.7630163 118.55,32.2 C117.416667,33.68 116.853333,36.1833333 116.86,39.71 C116.866667,43.2366667 117.426667,45.7733333 118.54,47.32 C119.726862,48.8572665 121.602318,49.7012216 123.54,49.57 C125.480658,49.6897707 127.355391,48.8440828 128.55,47.31 Z" id="Shape" fill="#3F3D44"></path>
                    <path d="M175.56,28.27 C177.04,29.83 177.79,32.27 177.79,35.7 L177.79,53.09 L172.67,53.09 L172.67,36 C172.810342,34.4866939 172.382591,32.9753062 171.47,31.76 C170.582762,30.8679658 169.356102,30.3984133 168.1,30.47 C167.03147,30.4768807 165.977177,30.7157172 165.01,31.17 C163.954444,31.6625157 163.044788,32.4205623 162.37,33.37 C162.448807,34.1140814 162.488861,34.8617579 162.49,35.61 L162.49,53.09 L157.49,53.09 L157.49,36 C157.629222,34.4897374 157.217184,32.9801141 156.33,31.75 C155.475356,30.830103 154.253212,30.3419794 153,30.42 C151.871538,30.4235162 150.760409,30.6978692 149.76,31.22 C148.677722,31.7812632 147.760798,32.6154575 147.1,33.64 L147.1,53.09 L142,53.09 L142,27.59 C141.999989,27.2567395 142.133057,26.9372722 142.369645,26.7025621 C142.606233,26.4678521 142.92675,26.3373339 143.26,26.34 L146.26,26.34 L146.63,29.29 L146.9,29.29 C147.858979,28.2181298 149.035006,27.3625269 150.35,26.78 C151.680166,26.1985868 153.11839,25.905489 154.57,25.92 C155.956675,25.8903351 157.329667,26.1992584 158.57,26.82 C159.749058,27.441551 160.696002,28.4270742 161.27,29.63 C163.340616,27.2746757 166.323921,25.9232638 169.46,25.92 C171.736845,25.7885204 173.959859,26.6449275 175.56,28.27 Z" id="Shape" fill="#3F3D44"></path>
                    <path d="M206.1,41.31 L189.28,41.31 C189.270209,42.9648016 189.628882,44.6010345 190.33,46.1 C190.931663,47.272568 191.926278,48.1963922 193.14,48.71 C194.702643,49.3052895 196.368912,49.5807341 198.04,49.52 C199.723141,49.4965617 201.3991,49.2954466 203.04,48.92 C203.46057,48.8084814 203.909108,48.9033718 204.248482,49.1756602 C204.587856,49.4479485 204.77771,49.8652564 204.76,50.3 L204.76,52.54 C202.363798,53.1909839 199.893022,53.5271439 197.41,53.54 C192.896667,53.54 189.563333,52.4333333 187.41,50.22 C185.256667,48.0066667 184.153333,44.4966667 184.1,39.69 C184.1,35.1566667 185.1,31.73 187.1,29.41 C189.1,27.08 191.86,25.92 195.45,25.92 C199.04,25.92 201.57,27.08 203.45,29.4 C205.33,31.72 206.19,35.2 206.19,39.83 L206.1,41.31 Z M190.89,31.44 C189.89,32.77 189.32,34.98 189.26,38.06 L201.26,38.06 C201.2,34.98 200.68,32.7733333 199.7,31.44 C198.682204,30.0742045 197.039125,29.3204986 195.34,29.44 C193.61976,29.3437314 191.960077,30.0896565 190.89,31.44 Z" id="Shape" fill="#3F3D44"></path>
                    <path d="M14,6.51 C14,13.56 15.53,43.96 17.06,51.75 C18.37,58.43 20.5,62.5 23.55,62.5 C25.84,62.5 27.2,58.63 28.55,50.64 C30,41.37 30.8,12.81 30.8,6.88 C30.8,3.4 30.67,0 22.65,0 C14.63,0 14,3 14,6.51 Z" id="Shape" fill="#4C10BC"></path>
                    <path d="M32.42,8.6 C30.26,14.77 22.42,41.88 21.42,49.2 C20.61,55.47 21.37,59.74 24.25,60.75 C26.41,61.51 28.88,58.56 32.57,52.01 C36.85,44.4 46.32,19.67 48.14,14.48 C49.2,11.48 50.14,8.42 42.55,5.77 C34.96,3.12 33.51,5.5 32.42,8.6 Z" id="Shape" fill="#F1AC7C"></path>
                    <path d="M36.52,18.69 C34,23.79 24.24,46.46 22.77,52.77 C21.51,58.19 21.93,62.09 24.65,63.47 C26.7,64.47 29.32,62.31 33.41,57.12 C38.15,51.12 49.23,30.81 51.41,26.52 C52.68,24.01 53.8,21.52 46.64,17.88 C39.48,14.24 37.82,16.13 36.52,18.69 Z" id="Shape" fill="#6A29E2" opacity="0.85"></path>
                    <path d="M1.51,20.8 C3.51,26.57 13.51,50.97 17.15,56.85 C20.27,61.85 23.43,64.53 26.32,63.54 C28.49,62.79 28.68,59.18 27.67,52.21 C26.5,44.12 19.17,20.49 17.5,15.63 C16.5,12.78 15.44,10.04 7.85,12.63 C0.26,15.22 0.5,17.89 1.51,20.8 Z" id="Shape" fill="#EF8074"></path>
                    <path d="M16.09,20.66 C16.09,26.07 17.62,49.41 19.15,55.39 C20.46,60.52 22.59,63.65 25.64,63.65 C27.93,63.65 29.29,60.65 30.64,54.54 C32.16,47.42 32.93,25.54 32.93,20.94 C32.93,18.27 32.8,15.66 24.78,15.66 C16.76,15.66 16.09,17.93 16.09,20.66 Z" id="Shape" fill="#F7D4B9" opacity="0.85"></path>
                </g>
            </g>
        </g>
    </g>
</svg>