
<svg width="78px" height="97px" viewBox="0 0 78 97" version="1.1" xmlns="http://www.w3.org/2000/svg" xmlns:xlink="http://www.w3.org/1999/xlink">
    <!-- Generator: Sketch 48.1 (47250) - http://www.bohemiancoding.com/sketch -->
    <desc>Biome</desc>
    <defs></defs>
    <g id="*-Documentation" stroke="none" stroke-width="1" fill="none" fill-rule="evenodd">
        <g id="Home-biome-text-Copy" transform="translate(-690.000000, -135.000000)" fill-rule="nonzero">
            <g id="icono-solo" transform="translate(690.000000, 135.000000)">
                <path d="M20.1320755,9.86671875 C20.1320755,20.551875 22.4415094,66.626875 24.7509434,78.4335937 C26.7283019,88.5579687 29.9433962,94.7265625 34.5471698,94.7265625 C38.0037736,94.7265625 40.0566038,88.8610937 42.0943396,76.75125 C44.2830189,62.7014062 45.490566,19.4151562 45.490566,10.4275 C45.490566,5.153125 45.2943396,0 33.1886792,0 C21.0830189,0 20.1320755,4.546875 20.1320755,9.86671875 Z" id="Shape" fill="#4C10BC"></path>
                <path d="M47.9358491,13.034375 C44.6754717,22.3857812 32.8415094,63.474375 31.3320755,74.56875 C30.109434,84.0717187 31.2566038,90.5434375 35.6037736,92.0742187 C38.8641509,93.2260937 42.5924528,88.755 48.1622642,78.8276562 C54.6226415,67.29375 68.9169811,29.8123437 71.6641509,21.94625 C73.2641509,17.399375 74.6830189,12.7615625 63.2264151,8.74515625 C51.7698113,4.72875 49.5811321,8.3359375 47.9358491,13.034375 Z" id="Shape" fill="#F1AC7C"></path>
                <path d="M54.1245283,28.3270313 C50.3207547,36.0567188 35.5886792,70.4159375 33.3698113,79.9795313 C31.4679245,88.1942188 32.1018868,94.1051562 36.2075472,96.1967188 C39.3018868,97.7123437 43.2566038,94.4385937 49.4301887,86.5725 C56.5849057,77.47875 73.309434,46.6964063 76.6,40.194375 C78.5169811,36.3901563 80.2075472,32.61625 69.4,27.099375 C58.5924528,21.5825 56.0867925,24.4470313 54.1245283,28.3270313 Z" id="Shape" fill="#6A29E2" opacity="0.85"></path>
                <path d="M1.27924528,31.525 C4.29811321,40.2701562 19.3924528,77.2514062 24.8867925,86.1632812 C29.5962264,93.7414062 34.3660377,97.8032812 38.7283019,96.3028125 C42.0037736,95.1660937 42.290566,89.6946875 40.7660377,79.1307812 C39,66.869375 27.9358491,31.0551562 25.4150943,23.6892187 C23.9056604,19.3696875 22.3056604,15.216875 10.8490566,19.1423437 C-0.60754717,23.0678125 -0.245283019,27.1145312 1.27924528,31.525 Z" id="Shape" fill="#EF8074"></path>
                <path d="M23.2867925,31.3128125 C23.2867925,39.5123438 25.5962264,74.8870313 27.9056604,83.9504688 C29.8830189,91.725625 33.0981132,96.4695313 37.7018868,96.4695313 C41.1584906,96.4695313 43.2113208,91.9226563 45.2490566,82.6621875 C47.5433962,71.8709375 48.7056604,38.7090625 48.7056604,31.7371875 C48.7056604,27.6904688 48.509434,23.7346875 36.4037736,23.7346875 C24.2981132,23.7346875 23.2867925,27.1751563 23.2867925,31.3128125 Z" id="Shape" fill="#F7D4B9" opacity="0.85"></path>
            </g>
        </g>
    </g>
</svg>