
<svg width="88px" height="29px" viewBox="0 0 88 29" version="1.1" xmlns="http://www.w3.org/2000/svg" xmlns:xlink="http://www.w3.org/1999/xlink">
    <!-- Generator: Sketch 48.1 (47250) - http://www.bohemiancoding.com/sketch -->
    <defs></defs>
    <g id="*-Documentation" stroke="none" stroke-width="1" fill="none" fill-rule="evenodd">
        <g id="Home-biome-text-Copy" transform="translate(-558.000000, -768.000000)" fill="#686A6D" fill-rule="nonzero">
            <g id="Group-9" transform="translate(558.000000, 768.000000)">
                <g id="Group">
                    <path d="M20.9431933,8.5035078 L18.8287363,10.5626125 C22.3528313,13.9944538 22.3528313,19.5834524 18.8287363,23.0152936 C15.3046413,26.4471348 9.56540079,26.4471348 6.04130576,23.0152936 C2.51721074,19.5834524 2.51721074,13.9944538 6.04130576,10.5626125 L11.6798578,5.07166657 L12.3846768,4.28724572 L12.3846768,0.169036238 L3.82616032,8.5035078 C1.55470737,10.6931911 0.27667501,13.6764595 0.27667501,16.7889531 C0.27667501,19.9014467 1.55470737,22.884715 3.82616032,25.0743983 C6.07470609,27.2863892 9.13816981,28.5309652 12.3343326,28.5309652 C15.5304954,28.5309652 18.5939591,27.2863892 20.8425049,25.0743983 C25.6755495,20.4659258 25.6755495,13.0139277 20.9431933,8.5035078 Z" id="Shape"></path>
                    <ellipse id="Oval" cx="16.7142793" cy="6.34635046" rx="1.61101487" ry="1.56884171"></ellipse>
                </g>
                <path d="M34.2754948,16.1147236 L32.6202532,16.1147236 L32.6202532,20.2605578 L31.3846154,20.2605578 L31.3846154,8.49199801 L34.4054313,8.49199801 C37.609979,8.49199801 39.120387,10.007194 39.120387,12.1993926 C39.120387,14.7848973 37.243343,16.0776496 34.2680463,16.1219772 L34.2754948,16.1147236 Z M34.3582569,9.60663424 L32.5805274,9.60663424 L32.5805274,15.0008933 L34.3201864,14.9565658 C36.6093855,14.9122382 37.845851,14.0200457 37.845851,12.192139 C37.845851,10.5431543 36.6557323,9.60663424 34.3665331,9.60663424 L34.3582569,9.60663424 Z M44.7134484,20.2154243 L43.981004,22.0876586 C43.1566937,24.1831424 42.3257624,24.8069519 41.0967455,24.8069519 C40.4098202,24.8069519 39.9066268,24.6296417 39.3570866,24.4055861 L39.722895,23.3360834 C40.1350501,23.559333 40.5918968,23.6923156 41.0967455,23.6923156 C41.7836707,23.6923156 42.2868642,23.3360834 42.9274427,21.6774273 L43.5233297,20.1622313 L40.0903586,11.6481191 L41.3731708,11.6481191 L44.1655634,18.7808238 L46.9132645,11.6481191 L48.1489023,11.6481191 L44.7134484,20.2154243 Z M52.2654882,9.65096179 L52.2654882,20.3056913 L51.0298503,20.3056913 L51.0298503,9.65096179 L46.7725689,9.65096179 L46.7725689,8.49199801 L56.521942,8.49199801 L56.521942,9.60663424 L52.2646606,9.60663424 L52.2654882,9.65096179 Z M60.0012598,20.527329 C57.5291565,20.527329 55.6976317,18.7445558 55.6976317,15.980129 C55.6976317,13.2157022 57.5746756,11.3886015 60.0840219,11.3886015 C62.5561252,11.3886015 64.3413033,13.1713747 64.3413033,15.9358015 C64.3413033,18.7002283 62.4642593,20.527329 59.992156,20.527329 L60.0012598,20.527329 Z M60.046779,12.4677757 C58.169735,12.4677757 56.9349248,13.9386442 56.9349248,15.944667 C56.9349248,18.0401509 58.217737,19.4666918 60.0931257,19.4666918 C61.9685145,19.4666918 63.2049799,17.9958233 63.2049799,15.9898005 C63.2049799,13.8943166 61.9221677,12.4677757 60.046779,12.4677757 Z M67.4175698,20.3048854 L66.2274511,20.3048854 L66.2274511,11.6569846 L67.4175698,11.433735 L67.4175698,13.2616417 C68.0134568,12.1470055 68.8824586,11.433735 70.0270582,11.433735 C70.572088,11.4381206 71.1071989,11.5761574 71.5829853,11.8351007 L71.2635237,12.948931 C70.8977153,12.7256814 70.3945218,12.5926988 69.8896732,12.5926988 C68.9743245,12.5926988 68.1044951,13.2616417 67.3720507,14.8219712 L67.3720507,20.3048854 L67.4175698,20.3048854 Z M76.297941,20.527329 C73.6429335,20.527329 71.9487937,18.6550948 71.9487937,15.980129 C71.9487937,13.2608357 73.7794909,11.3886015 76.297941,11.3886015 C77.3961938,11.3886015 78.31237,11.6561787 79.0903336,12.1461995 L78.7700443,13.2157022 C78.0831191,12.7700089 77.2596364,12.5024318 76.297941,12.5024318 C74.3753779,12.5024318 73.1860868,13.8846452 73.1860868,15.9358015 C73.1860868,18.0312854 74.468899,19.4126928 76.3442878,19.4126928 C77.2212153,19.4087559 78.0787973,19.1613197 78.8163911,18.6994223 L79.0456421,19.7689251 C78.2676785,20.2589459 77.3059831,20.5265231 76.297941,20.5265231 L76.297941,20.527329 Z M86.505816,20.3048854 L86.505816,14.7325102 C86.505816,13.2173141 85.8652375,12.5564308 84.628772,12.5564308 C83.6215575,12.5564308 82.614343,13.0464516 81.8810709,13.8056615 L81.8810709,20.3580784 L80.6909522,20.3580784 L80.6909522,7.60786501 L81.8810709,7.38461538 L81.8810709,12.823202 C82.7964195,11.9318154 83.9865383,11.4409886 84.9482336,11.4409886 C86.6878925,11.4409886 87.7406262,12.5104913 87.7406262,14.3827256 L87.7406262,20.311333 L86.505816,20.3048854 Z" id="Shape"></path>
            </g>
        </g>
    </g>
</svg>