<svg width="120px" height="31px" viewBox="0 0 110 31" version="1.1" 
  xmlns="http://www.w3.org/2000/svg" 
  xmlns:xlink="http://www.w3.org/1999/xlink">
  <!-- Generator: Sketch 48.1 (47250) - http://www.bohemiancoding.com/sketch -->
  <desc>Created with Sketch.</desc>
  <defs>
    <path d="M8.385,2.76 C9.886,1.743 11.68,0.973 13.413,0.973 C14.712,0.973 15.976,1.406 17.056,2.491 C19.968,5.413 19.968,10.021 20.826,13.777 C21.128,15.093 21.484,16.84 22.471,17.851 C23.14,18.534 23.883,18.234 24.588,17.747 C25.844,16.879 26.835,15.586 27.733,14.374 C28.453,13.401 29.123,12.391 29.763,11.365 C30.314,10.482 30.815,9.11 32.115,9.345 C34.984,9.863 31.904,13.626 31.184,14.694 C30.044,16.386 28.798,18.072 27.261,19.429 C25.35,21.115 22.584,22.17 20.497,20.137 C17.664,17.38 17.741,12.632 16.915,9.061 C16.38,6.752 15.25,3.156 12.205,4.127 C10.834,4.564 9.621,5.5 8.539,6.418 C6.707,7.972 5.083,9.772 3.549,11.617 C2.78,12.539 1.262,12.195 0.952,11.044 C0.621,9.81 2.142,8.622 2.864,7.82 C4.527,5.968 6.316,4.162 8.385,2.76 Z" id="path-1"></path>
    <linearGradient x1="61.9919443%" y1="30.5324413%" x2="59.3185754%" y2="134.022002%" id="linearGradient-3">
      <stop stop-color="#95E1D0" offset="0%"></stop>
      <stop stop-color="#E6AEEB" offset="100%"></stop>
    </linearGradient>
    <path d="M8.385,2.76 C6.316,4.162 4.527,5.968 2.864,7.82 C2.142,8.622 0.621,9.81 0.952,11.044 C1.262,12.195 2.78,12.539 3.549,11.617 C5.083,9.772 6.707,7.972 8.539,6.418 C9.621,5.5 10.834,4.564 12.205,4.127 C15.25,3.156 16.38,6.752 16.915,9.061 C17.741,12.632 17.664,17.38 20.497,20.137 C22.584,22.17 25.35,21.115 27.261,19.429 C28.798,18.072 30.044,16.386 31.184,14.694 C31.904,13.626 34.984,9.863 32.115,9.345 C30.815,9.11 30.314,10.482 29.763,11.365 C29.123,12.391 28.453,13.401 27.733,14.374 C26.835,15.586 25.844,16.879 24.588,17.747 C23.883,18.234 23.14,18.534 22.471,17.851 C21.484,16.84 21.128,15.093 20.826,13.777 C19.968,10.021 19.968,5.413 17.056,2.491 C15.976,1.406 14.712,0.973 13.413,0.973 C11.68,0.973 9.886,1.743 8.385,2.76" id="path-4"></path>
    <linearGradient x1="87.7367558%" y1="51.8680494%" x2="18.2683528%" y2="71.6359155%" id="linearGradient-6">
      <stop stop-color="#95E1D0" offset="0%"></stop>
      <stop stop-color="#E6AEEB" offset="100%"></stop>
    </linearGradient>
  </defs>
  <g id="Master-Ecosystem--" stroke="none" stroke-width="1" fill="none" fill-rule="evenodd">
    <g id="Eco-0" transform="translate(-360.000000, -577.000000)">
      <g id="Page-1" transform="translate(360.000000, 577.000000)">
        <g id="Group-3" transform="translate(0.000000, 8.870000)">
          <mask id="mask-2" fill="white">
            <use xlink:href="#path-1"></use>
          </mask>
          <g id="Clip-2"></g>
          <polygon id="Fill-1" fill="url(#linearGradient-3)" mask="url(#mask-2)" points="-826 643.468 477.839 688.999 510.781 -254.339 -793.057 -299.87"></polygon>
        </g>
        <g id="Group-6" transform="translate(0.000000, 8.870000)">
          <mask id="mask-5" fill="white">
            <use xlink:href="#path-4"></use>
          </mask>
          <g id="Clip-5"></g>
          <path d="M8.385,2.76 C6.316,4.162 4.527,5.968 2.864,7.82 C2.142,8.622 0.621,9.81 0.952,11.044 C1.262,12.195 2.78,12.539 3.549,11.617 C5.083,9.772 6.707,7.972 8.539,6.418 C9.621,5.5 10.834,4.564 12.205,4.127 C15.25,3.156 16.38,6.752 16.915,9.061 C17.741,12.632 17.664,17.38 20.497,20.137 C22.584,22.17 25.35,21.115 27.261,19.429 C28.798,18.072 30.044,16.386 31.184,14.694 C31.904,13.626 34.984,9.863 32.115,9.345 C30.815,9.11 30.314,10.482 29.763,11.365 C29.123,12.391 28.453,13.401 27.733,14.374 C26.835,15.586 25.844,16.879 24.588,17.747 C23.883,18.234 23.14,18.534 22.471,17.851 C21.484,16.84 21.128,15.093 20.826,13.777 C19.968,10.021 19.968,5.413 17.056,2.491 C15.976,1.406 14.712,0.973 13.413,0.973 C11.68,0.973 9.886,1.743 8.385,2.76" id="Fill-4" fill="url(#linearGradient-6)" mask="url(#mask-5)"></path>
        </g>
        <g id="Group-11" transform="translate(28.000000, 0.870000)" fill="#95E1D0">
          <path d="M24.1781,10.6682 C25.2941,10.6682 26.4251,9.9102 27.1841,9.1392 C27.7941,8.5212 28.4331,7.0842 27.0991,6.7632 C26.1621,6.5372 24.8871,7.6342 24.3141,8.2302 C23.8081,8.7552 22.8801,10.4542 24.1781,10.6682" id="Fill-7"></path>
          <path d="M34.2401,16.1047 C34.0011,16.5607 33.3871,17.8137 32.7191,17.4997 C31.7241,17.0337 32.8141,15.9297 33.1821,15.5447 C33.3661,15.3527 34.6471,13.9187 34.9691,14.1897 C35.2831,14.4537 34.3371,15.9207 34.2401,16.1047 M30.0101,21.4687 C29.3711,22.0397 28.6181,22.6527 27.7751,22.8857 C26.9421,23.1167 26.9131,22.6747 27.1291,21.9867 C27.6981,20.1687 28.9571,18.4007 30.3341,17.1127 C30.4571,17.1127 30.8121,17.9837 30.8561,18.0667 C31.0021,18.3387 31.1451,18.6227 31.3281,18.8727 C31.3551,18.9097 31.7701,19.3417 31.7741,19.3807 C31.8401,20.0507 30.3991,21.1207 30.0101,21.4687 M11.5601,16.8607 C9.9541,19.0367 7.8931,21.3737 5.5121,22.7127 C4.9911,23.0067 3.4321,23.8367 3.4731,22.7887 C3.5101,21.8747 4.4801,20.7307 4.9721,20.0287 C6.4741,17.8877 8.5201,15.6617 10.8611,14.4387 C11.3101,14.2047 13.1571,13.3337 13.2041,14.1197 C13.2531,14.9277 11.9861,16.2847 11.5601,16.8607 M68.0611,15.6187 C68.3851,15.3387 70.8181,13.1117 71.3911,13.7377 C71.9051,14.2987 69.5141,15.9607 69.2401,16.1687 C68.8851,16.4387 66.4981,18.4617 65.9371,18.0487 C65.4841,17.7137 67.8201,15.8267 68.0611,15.6187 M80.8421,13.6927 C78.3531,15.5527 75.7781,17.3337 73.1431,18.9787 C70.7261,20.4877 68.1481,21.9777 65.2831,22.3757 C64.7531,22.4487 63.7991,22.7117 63.5201,22.1147 C63.2411,21.5117 63.7331,20.6847 64.0291,20.1907 C64.2401,19.8377 64.5701,19.1287 65.0821,19.2637 C65.3471,19.3337 65.4481,19.6747 65.7091,19.7977 C65.9271,19.9017 66.1621,19.8877 66.3931,19.8547 C67.7191,19.6647 69.1601,18.7257 70.2481,18.0027 C71.4771,17.1877 73.0401,16.1107 73.6341,14.6987 C74.1631,13.4377 73.1791,12.1707 71.9051,11.9047 C70.5081,11.6117 68.8711,12.3607 67.6791,13.0057 C66.0841,13.8697 64.9011,15.1237 63.4661,16.1827 C62.0941,17.1957 60.7461,18.2397 59.3711,19.2457 C58.2081,20.0967 57.0351,20.9547 55.7791,21.6637 C55.2751,21.9477 52.7641,23.4167 52.9371,22.0567 C53.0881,20.8677 54.2421,19.7377 55.0081,18.9017 C55.9671,17.8557 56.9401,16.8237 57.9041,15.7817 C58.3731,15.2767 59.5441,14.4017 59.7101,13.7377 C59.8471,13.1857 59.3031,12.9267 58.9171,12.6467 C57.8781,11.8917 57.0461,12.9297 56.2181,13.5617 C53.9401,15.2997 51.5611,17.1107 49.0901,18.5527 C49.0531,18.5527 49.8011,17.4497 49.9311,17.2707 L51.3051,15.3897 C51.5781,15.0167 52.2171,14.3757 51.9961,13.8667 C51.5361,12.8097 50.3141,13.4877 49.7181,13.8567 C48.6101,14.5427 47.5551,15.3217 46.4861,16.0637 C45.6361,16.6527 44.6961,17.5707 43.7251,17.9407 C43.6531,17.9407 44.5521,16.6617 44.6541,16.5057 C45.1171,15.8067 46.0721,14.6807 45.9441,13.8007 C45.8481,13.1477 45.0051,12.4377 44.3521,12.7497 C43.7971,13.0137 43.5541,13.7777 43.1361,14.1907 C42.2571,15.0597 41.0541,15.7907 40.0301,16.4507 C38.6471,17.3407 36.7481,18.8047 35.0131,18.8047 C35.9371,17.3947 36.9471,15.7137 37.0521,13.9827 C37.0961,13.2517 36.7851,12.4867 36.0671,12.1587 C35.4821,11.8917 34.9641,12.3487 34.4161,12.2617 C34.1751,12.2227 34.0941,12.0277 33.7901,12.0367 C33.6431,12.0407 33.2941,12.2297 33.1841,12.2757 C32.7901,12.4387 32.4001,12.6177 32.0191,12.8107 C31.1791,13.2357 30.3761,13.7317 29.6231,14.2957 C28.9581,14.7937 28.3331,15.3447 27.7551,15.9417 C27.0861,16.6307 26.5891,17.5757 25.8981,18.2137 C25.1951,18.8627 24.1061,19.3217 23.2821,19.8057 C22.3031,20.3807 21.3141,20.9397 20.3141,21.4787 C19.9001,21.7027 18.6481,22.5777 18.1421,22.1147 C17.6841,21.6957 18.5491,20.3457 18.7921,19.8997 C19.6511,18.3217 20.8181,16.8387 21.9991,15.4867 C22.4171,15.0087 22.8881,14.5747 23.2961,14.0887 C23.9961,13.2547 23.0861,13.0447 22.2821,12.9847 C20.3661,12.8387 19.4891,14.4577 18.3911,15.7227 C17.6901,16.5327 16.5311,17.0857 15.5971,17.6157 C14.8091,18.0627 13.9761,18.5117 13.0901,18.7327 C14.4271,17.1857 16.8021,14.7877 15.3061,12.6387 C14.3861,11.3167 13.0501,11.5947 11.6961,12.0487 C10.9981,12.2837 10.3271,12.5977 9.6841,12.9557 C9.3441,13.1447 8.0381,13.9457 8.7341,13.0087 C9.0601,12.5707 9.7151,12.2167 10.1381,11.8747 C10.6041,11.4987 11.0691,11.1197 11.5371,10.7447 C14.0671,8.7157 16.5811,6.4917 18.5961,3.9377 C19.1771,3.2007 19.9891,2.1937 20.0321,1.2017 C20.0841,-0.0093 18.5491,0.0237 17.6881,0.0587 C16.3191,0.1137 15.7101,0.9157 14.9831,2.0217 C14.3231,3.0237 13.7191,4.0427 13.0121,5.0167 C11.2731,7.4117 9.4491,9.8917 7.3771,12.0057 C5.2841,14.1407 3.2101,16.4607 1.7231,19.0697 C0.4951,21.2237 -0.8299,24.7567 2.6981,25.2547 C6.0741,25.7317 9.2611,22.6317 11.4701,20.4607 C11.4461,20.4977 11.4221,20.5327 11.3981,20.5687 C13.1191,20.8607 14.7951,19.9207 16.1931,19.0207 C15.1751,20.7617 13.8631,24.3337 16.7791,25.1057 C19.4831,25.8217 22.2631,23.4317 24.2231,21.9257 C23.9471,23.8967 25.2331,25.4077 27.2821,25.2657 C28.9101,25.1537 30.4171,23.9877 31.5841,22.9527 C31.9981,22.5847 32.3931,22.1987 32.7771,21.8007 C33.1221,21.4437 33.5921,20.6947 34.0301,20.5887 C34.3201,20.5187 34.7591,20.6457 35.0801,20.6017 C35.4141,20.5547 35.7431,20.4667 36.0621,20.3607 C38.0561,19.6977 39.8241,18.3137 41.4211,16.9917 C40.7771,17.9067 40.0841,18.7877 39.3711,19.6507 C38.9451,20.1657 38.5111,20.6727 38.0721,21.1757 C37.7171,21.5837 36.8821,22.1867 36.7681,22.7107 C36.5701,23.6277 38.0571,23.9677 38.6661,23.6637 C39.1631,23.4137 39.6171,22.9667 40.0541,22.6297 C41.2671,21.6977 42.4681,20.7497 43.6711,19.8047 C44.2411,19.3567 44.8111,18.9097 45.3821,18.4607 C45.5441,18.3347 46.1151,17.7247 46.3531,17.7247 C46.5131,17.7247 45.6201,18.6667 45.4951,18.7947 C44.8971,19.4137 44.3671,20.0967 43.8511,20.7847 C43.3221,21.4917 42.2081,22.5327 42.3721,23.4957 C42.5281,24.4157 43.5521,24.4827 44.2651,24.1677 C45.3321,23.6987 46.3121,22.8147 47.2261,22.1137 C48.0691,21.4657 48.9001,20.8017 49.7261,20.1317 C50.1781,19.7657 50.6301,19.3967 51.0791,19.0267 C51.2631,18.8747 52.4731,18.0687 52.4731,17.9227 C52.4731,18.2647 51.7801,18.9567 51.5991,19.2047 C51.3031,19.6107 50.9941,20.0097 50.7101,20.4247 C49.7721,21.7957 49.2611,24.3017 50.9921,25.3387 C52.4131,26.1897 53.9271,25.4457 55.1771,24.6757 C57.2631,23.3907 59.1771,21.7717 61.0511,20.1987 C60.5021,21.9567 60.6631,24.6997 62.8561,25.1507 C64.9871,25.5877 67.4591,24.3397 69.2751,23.3927 C71.8101,22.0707 74.2301,20.5177 76.4781,18.7507 C77.5051,17.9427 78.5141,17.1107 79.4851,16.2357 C80.0361,15.7387 81.8821,14.5017 80.8421,13.6927" id="Fill-9"></path>
        </g>
      </g>
    </g>
  </g>
</svg>