<?xml version="1.0" encoding="UTF-8"?>
<svg width="30px" height="26px" viewBox="0 0 30 26" version="1.1" 
  xmlns="http://www.w3.org/2000/svg" 
  xmlns:xlink="http://www.w3.org/1999/xlink">
  <!-- Generator: Sketch 48.1 (47250) - http://www.bohemiancoding.com/sketch -->
  <defs></defs>
  <g id="Page-1" stroke="none" stroke-width="1" fill="none" fill-rule="evenodd">
    <g id="desktop" fill="#000000" fill-rule="nonzero">
      <g id="Group">
        <path d="M9.0975,25.75 L20.902,25.75 L15,16.3065 L9.0975,25.75 Z M10.9025,24.75 L15,18.1935 L19.0975,24.75 L10.9025,24.75 Z" id="Shape"></path>
        <path d="M0,0.25 L0,20.25 L11,20.25 C11.2765,20.25 11.5,20.0265 11.5,19.75 C11.5,19.4735 11.2765,19.25 11,19.25 L1,19.25 L1,1.25 L29,1.25 L29,19.25 L19,19.25 C18.7235,19.25 18.5,19.4735 18.5,19.75 C18.5,20.0265 18.7235,20.25 19,20.25 L30,20.25 L30,0.25 L0,0.25 Z" id="Shape"></path>
      </g>
    </g>
  </g>
</svg>