<?xml version="1.0" standalone="no"?>
<!DOCTYPE svg PUBLIC "-//W3C//DTD SVG 20010904//EN"
 "http://www.w3.org/TR/2001/REC-SVG-20010904/DTD/svg10.dtd">
<svg version="1.0" 
  xmlns="http://www.w3.org/2000/svg" width="222.000000pt" height="222.000000pt" viewBox="0 0 222.000000 222.000000" preserveAspectRatio="xMidYMid meet">
  <metadata>
Created by potrace 1.11, written by Peter Selinger 2001-2013
  </metadata>
  <g transform="translate(0.000000,222.000000) scale(0.100000,-0.100000)" fill="#000000" stroke="none">
    <path d="M832 2072 l-154 -147 11 -55 c6 -30 22 -107 36 -170 14 -63 28 -131
31 -150 3 -19 8 -38 10 -41 2 -4 6 -22 9 -40 3 -19 12 -61 20 -94 7 -33 12
-61 10 -63 -1 -2 -29 10 -62 26 -32 15 -66 31 -75 35 -15 5 -17 -13 -16 -213
l0 -219 58 -45 c32 -25 61 -46 65 -46 4 0 36 20 72 45 l65 46 -5 -33 c-3 -18
-26 -116 -52 -218 -46 -182 -47 -187 -46 -334 l1 -149 54 -61 c97 -110 98
-111 159 -125 51 -11 67 -11 122 4 35 10 73 27 83 39 41 46 58 90 58 145 l-1
55 -63 39 c-55 35 -66 38 -85 28 -52 -28 -70 -49 -72 -82 -2 -29 3 -37 37 -57
57 -35 86 -16 69 47 -1 2 -8 -2 -16 -9 -11 -10 -17 -9 -29 3 -14 13 -13 17 7
30 21 13 25 13 51 -8 24 -19 27 -27 21 -57 -9 -48 -14 -53 -69 -71 l-48 -17
-59 47 c-64 50 -63 49 -49 138 5 33 11 76 14 95 7 54 81 244 229 594 l136 318
-115 265 c-63 145 -114 266 -114 268 0 2 21 -2 48 -10 26 -8 72 -21 102 -29
30 -8 86 -23 123 -34 l68 -20 42 45 c23 24 43 48 45 53 2 4 -34 33 -80 63
-287 189 -474 310 -483 313 -5 2 -79 -63 -163 -144z"/>
  </g>
</svg>
