
<svg width="77px" height="77px" viewBox="0 0 77 77" version="1.1" xmlns="http://www.w3.org/2000/svg" xmlns:xlink="http://www.w3.org/1999/xlink">
    <!-- Generator: Sketch 48.1 (47250) - http://www.bohemiancoding.com/sketch -->
    <desc>Created with Sketch.</desc>
    <defs>
        <polygon id="path-1" points="0 0.8574 33.5716 0.8574 33.5716 34.4284 0 34.4284"></polygon>
        <polygon id="path-3" points="0 0.5713 33.5716 0.5713 33.5716 34.1423 0 34.1423"></polygon>
        <polygon id="path-5" points="0.4284 0.7139 34 0.7139 34 34.2859 0.4284 34.2859"></polygon>
    </defs>
    <g id="Ecosystem--v3" stroke="none" stroke-width="1" fill="none" fill-rule="evenodd">
        <g id="Ecosystem-flow-1" transform="translate(-496.000000, -437.000000)">
            <g id="Page-1" transform="translate(496.000000, 437.000000)">
                <g id="Group-3" transform="translate(0.000000, 10.000000)">
                    <mask id="mask-2" fill="white">
                        <use xlink:href="#path-1"></use>
                    </mask>
                    <g id="Clip-2"></g>
                    <path d="M16.7856,1.8574 C8.0816,1.8574 0.9996,8.9384 0.9996,17.6424 C0.9996,26.3464 8.0816,33.4284 16.7856,33.4284 C25.4896,33.4284 32.5716,26.3464 32.5716,17.6424 C32.5716,8.9384 25.4896,1.8574 16.7856,1.8574 M16.7856,34.4284 C7.5296,34.4284 -0.0004,26.8984 -0.0004,17.6424 C-0.0004,8.3874 7.5296,0.8574 16.7856,0.8574 C26.0416,0.8574 33.5716,8.3874 33.5716,17.6424 C33.5716,26.8984 26.0416,34.4284 16.7856,34.4284" id="Fill-1" fill="#9FCDC3" mask="url(#mask-2)"></path>
                </g>
                <path d="M38.5,22.7139 C29.796,22.7139 22.714,29.7959 22.714,38.4999 C22.714,47.2039 29.796,54.2859 38.5,54.2859 C47.204,54.2859 54.286,47.2039 54.286,38.4999 C54.286,29.7959 47.204,22.7139 38.5,22.7139 M38.5,55.2859 C29.244,55.2859 21.714,47.7559 21.714,38.4999 C21.714,29.2439 29.244,21.7139 38.5,21.7139 C47.756,21.7139 55.286,29.2439 55.286,38.4999 C55.286,47.7559 47.756,55.2859 38.5,55.2859" id="Fill-4" fill="#4A4A4A"></path>
                <g id="Group-8" transform="translate(0.000000, 32.000000)">
                    <mask id="mask-4" fill="white">
                        <use xlink:href="#path-3"></use>
                    </mask>
                    <g id="Clip-7"></g>
                    <path d="M16.7856,1.5713 C8.0816,1.5713 0.9996,8.6533 0.9996,17.3573 C0.9996,26.0613 8.0816,33.1423 16.7856,33.1423 C25.4896,33.1423 32.5716,26.0613 32.5716,17.3573 C32.5716,8.6533 25.4896,1.5713 16.7856,1.5713 M16.7856,34.1423 C7.5296,34.1423 -0.0004,26.6123 -0.0004,17.3573 C-0.0004,8.1013 7.5296,0.5713 16.7856,0.5713 C26.0416,0.5713 33.5716,8.1013 33.5716,17.3573 C33.5716,26.6123 26.0416,34.1423 16.7856,34.1423" id="Fill-6" fill="#9FCDC3" mask="url(#mask-4)"></path>
                </g>
                <path d="M38.5,44.4287 C29.796,44.4287 22.714,51.5097 22.714,60.2137 C22.714,68.9177 29.796,75.9997 38.5,75.9997 C47.204,75.9997 54.286,68.9177 54.286,60.2137 C54.286,51.5097 47.204,44.4287 38.5,44.4287 M38.5,76.9997 C29.244,76.9997 21.714,69.4697 21.714,60.2137 C21.714,50.9587 29.244,43.4287 38.5,43.4287 C47.756,43.4287 55.286,50.9587 55.286,60.2137 C55.286,69.4697 47.756,76.9997 38.5,76.9997" id="Fill-9" fill="#4A4A4A"></path>
                <path d="M49.3569,1 C40.6529,1 33.5709,8.082 33.5709,16.786 C33.5709,25.49 40.6529,32.571 49.3569,32.571 C58.0619,32.571 65.1429,25.49 65.1429,16.786 C65.1429,8.082 58.0619,1 49.3569,1 M49.3569,33.571 C40.1009,33.571 32.5709,26.041 32.5709,16.786 C32.5709,7.53 40.1009,0 49.3569,0 C58.6129,0 66.1429,7.53 66.1429,16.786 C66.1429,26.041 58.6129,33.571 49.3569,33.571" id="Fill-11" fill="#4A4A4A"></path>
                <g id="Group-15" transform="translate(43.000000, 21.000000)">
                    <mask id="mask-6" fill="white">
                        <use xlink:href="#path-5"></use>
                    </mask>
                    <g id="Clip-14"></g>
                    <path d="M17.2144,1.7139 C8.5104,1.7139 1.4284,8.7959 1.4284,17.4999 C1.4284,26.2039 8.5104,33.2859 17.2144,33.2859 C25.9184,33.2859 33.0004,26.2039 33.0004,17.4999 C33.0004,8.7959 25.9184,1.7139 17.2144,1.7139 M17.2144,34.2859 C7.9584,34.2859 0.4284,26.7559 0.4284,17.4999 C0.4284,8.2439 7.9584,0.7139 17.2144,0.7139 C26.4704,0.7139 34.0004,8.2439 34.0004,17.4999 C34.0004,26.7559 26.4704,34.2859 17.2144,34.2859" id="Fill-13" fill="#9FCDC3" mask="url(#mask-6)"></path>
                </g>
            </g>
        </g>
    </g>
</svg>