<svg display="none" 
  xmlns="http://www.w3.org/2000/svg">

  <!--logo dark -->
  <symbol id="logo-dark" viewBox="0 0 150 48" 
    xmlns="http://www.w3.org/2000/svg">
    <g fill="#2BABA6" fill-rule="evenodd">
      <path d="M32.747 23.273c.454.02.988.03 1.604.03 2.462 0 4.257-.391 5.384-1.177 1.127-.785 1.69-2.016 1.69-3.69 0-1.148-.226-2.073-.672-2.776-.45-.702-1.148-1.217-2.097-1.542-.95-.326-2.187-.49-3.71-.49-.752 0-1.416.028-1.996.079-.579.052-1.192.134-1.838.248v9.194a31.78 31.78 0 0 0 1.635.124zm10.024 11.52l-7.2-9.504c-.52.02-.933.031-1.236.031-1.042 0-2.118-.042-3.223-.124v9.598h-2.504V12.218c2.139-.413 4.199-.62 6.18-.62 3.069 0 5.342.553 6.825 1.659 1.48 1.107 2.221 2.822 2.221 5.147.01 1.768-.468 3.2-1.431 4.296-.966 1.096-2.393 1.85-4.281 2.264l7.497 9.83H42.77zM50.784 21.068c-.715.952-1.094 2.517-1.135 4.695h8.298c-.04-2.189-.402-3.757-1.082-4.703-.68-.946-1.68-1.42-2.997-1.42-1.34 0-2.368.476-3.084 1.428zm9.525 6.44H49.65c.04 1.449.274 2.612.699 3.49.423.878 1.044 1.512 1.862 1.903.818.392 1.861.587 3.129.587 1.207 0 2.588-.233 4.141-.698v2.079c-1.513.464-2.99.698-4.432.698-2.648 0-4.625-.709-5.928-2.126-1.303-1.417-1.955-3.68-1.955-6.79 0-2.95.59-5.165 1.77-6.646 1.182-1.48 2.835-2.221 4.963-2.221 2.075 0 3.663.737 4.762 2.213 1.099 1.475 1.65 3.714 1.65 6.717v.794zM65.306 33.408c-1.27-1.436-1.904-3.684-1.904-6.74 0-3.057.684-5.301 2.053-6.734 1.368-1.433 3.39-2.15 6.064-2.15 1.26 0 2.42.148 3.481.444v2.158a12.893 12.893 0 0 0-3.2-.428c-1.332 0-2.422.216-3.27.65-.85.433-1.484 1.137-1.905 2.11-.421.973-.632 2.268-.632 3.886 0 1.64.195 2.959.585 3.958.39.999.97 1.724 1.74 2.173.77.45 1.749.673 2.935.673 1.094 0 2.342-.237 3.747-.713v2.158a12.03 12.03 0 0 1-4.106.714c-2.456 0-4.319-.72-5.588-2.159M88.19 31.942c.807-1.042 1.21-2.784 1.21-5.228 0-2.484-.403-4.248-1.21-5.29-.806-1.04-1.984-1.562-3.533-1.562-1.538 0-2.714.518-3.526 1.555-.812 1.036-1.217 2.775-1.217 5.219 0 2.474.402 4.238 1.21 5.29.806 1.052 1.984 1.578 3.533 1.578 1.55 0 2.727-.52 3.533-1.562m-8.937 1.444c-1.29-1.454-1.933-3.69-1.933-6.703 0-3.013.641-5.25 1.926-6.71 1.283-1.46 3.087-2.19 5.41-2.19 2.335 0 4.144.725 5.428 2.174 1.285 1.45 1.926 3.686 1.926 6.71 0 3.003-.646 5.237-1.941 6.703-1.295 1.464-3.099 2.197-5.412 2.197-2.314 0-4.115-.728-5.404-2.181M103.902 32.792a4.585 4.585 0 0 0 1.827-1.48V20.207a12.274 12.274 0 0 0-2.945-.349c-1.963 0-3.435.549-4.416 1.648-.981 1.098-1.473 2.846-1.473 5.243 0 2.397.413 4.086 1.236 5.068.824.983 1.981 1.474 3.472 1.474.799 0 1.564-.167 2.299-.5m-6.03 9.536a14.004 14.004 0 0 1-2.456-.578v-2.123c1.71.538 3.343.809 4.896.809 1.26 0 2.283-.175 3.07-.524a3.493 3.493 0 0 0 1.764-1.694c.388-.782.583-1.827.583-3.137v-1.663h-.157a5.622 5.622 0 0 1-2.017 1.497c-.807.364-1.71.546-2.707.546-1.239 0-2.346-.287-3.322-.863-.977-.576-1.753-1.493-2.33-2.756-.578-1.261-.866-2.88-.866-4.855 0-3.062.726-5.359 2.18-6.89 1.454-1.531 3.613-2.302 6.48-2.313.88 0 1.786.069 2.715.206.929.137 1.777.327 2.542.57v16.125c0 1.859-.288 3.364-.865 4.514-.578 1.152-1.438 1.993-2.583 2.527-1.144.533-2.597.8-4.36.8-.82 0-1.675-.066-2.568-.198M112.887 18.047h2.097l.172 1.898h.17a7.163 7.163 0 0 1 2.4-1.605 7.586 7.586 0 0 1 2.898-.556c1.689 0 3.012.47 3.97 1.412.958.942 1.437 2.452 1.437 4.531v11.067h-2.487V23.835c0-1.369-.303-2.352-.908-2.949-.606-.596-1.479-.895-2.618-.895-.839 0-1.678.18-2.517.54-.84.36-1.549.921-2.129 1.683v12.58h-2.485V18.047zM137.897 33.091c.733-.34 1.38-.868 1.938-1.589v-4.445l-3.675.413c-1.312.137-2.266.466-2.86.984-.594.519-.891 1.244-.891 2.175 0 .974.268 1.713.806 2.215.537.503 1.333.755 2.387.755.796 0 1.56-.17 2.295-.508m1.535-14.72a4.118 4.118 0 0 1 2.123 1.954c.475.91.713 2.133.713 3.667v11.29h-2.076l-.187-1.922h-.17a5.376 5.376 0 0 1-2.086 1.628 6.627 6.627 0 0 1-2.767.579c-1.044 0-1.948-.188-2.712-.563a4.017 4.017 0 0 1-1.76-1.628c-.41-.71-.613-1.545-.613-2.508 0-1.525.485-2.702 1.458-3.533.97-.831 2.516-1.353 4.635-1.565l3.845-.428v-1.477c0-1.026-.158-1.831-.473-2.413a2.608 2.608 0 0 0-1.411-1.231c-.626-.238-1.444-.357-2.458-.357-.692 0-1.434.063-2.223.19-.792.127-1.564.323-2.319.588v-2.096a12.992 12.992 0 0 1 2.358-.564 16.876 16.876 0 0 1 2.51-.198c1.469 0 2.672.196 3.613.587M146.688 35.567h2.773V18.492h-2.773v17.075zm-.051-21.192c-.336-.277-.503-.668-.503-1.171 0-.504.17-.898.51-1.181.342-.283.819-.425 1.431-.425.612 0 1.086.142 1.422.425.334.283.503.677.503 1.18 0 .504-.169.895-.503 1.172-.336.28-.81.418-1.422.418-.624 0-1.104-.139-1.438-.418zM7.14 0l12.19 8.01-1.891 2.114L10 8.01l4.983 11.568-6.126 14.527-1.533 4.314-.688 4.55 2.574 2.08 2.241-.743.55-1.887-1.308-1.024-1.028.75.816.657.634-.657v1.155l-.634.48-1.66-.978v-1.407l1.872-1.31 2.722 1.633v2.588L12 46.35l-2.79.814-2.574-.565-2.39-2.302-.868-1.33-.092-6.074 2.405-9.776-3.033 2.163-2.658-2v-9.32l3.378 1.616L.534 6.35z"/>
    </g>
  </symbol>

  <!--logo white -->

  <symbol id="logo-white" viewBox="0 0 162 70" 
    xmlns="http://www.w3.org/2000/svg">
    <g _fill="none" fill-rule="evenodd">
      <g>
        <mask id="svgicon-recognai-brand-c" _fill="">
          <use xmlns:xlink="http://www.w3.org/1999/xlink" xlink:href="#svgicon-recognai-brand-a"></use>
        </mask>
        <path fill="#ffffff" stroke="none" pid="0" id="svgicon-recognai-brand-a" d="M28.582 11.833l-2.754 3.123-10.836-3.123 7.26 17.088-8.924 21.462-2.232 6.371-1.001 6.722 3.747 3.073 3.264-1.097.8-2.789-1.904-1.511-1.497 1.106 1.189.976.924-.976v1.708l-.924.709-2.42-1.44v-2.083l2.728-1.935 3.963 2.413v3.822l-2.06 3.024-4.063 1.201-3.747-.835-3.482-3.4-1.265-1.966-.133-8.97L8.718 40.06l-4.353 2.403-3.936-3.031V26.534l4.919 2.387L1.204 9.378 10.827 0z"></path>
      </g>
      <path fill="#ffffff" stroke="none" pid="2" fill-rule="nonzero" d="M11 0l4.223 11.867L26.208 15 29 11.867z"></path>
      <g fill-rule="nonzero" fill="red">
        <path fill="#ffffff" stroke="none" pid="3" d="M42.136 36.298l-3.368-7.047h-1.8v7.021h-3.6V18.694h6.789c2.982 0 5.4 2.383 5.4 5.292 0 2.132-1.286 3.962-3.163 4.79l3.573 7.522h-3.831zm-5.168-14.093v3.536h3.189c1.002 0 1.8-.777 1.8-1.756 0-.978-.798-1.78-1.8-1.78h-3.19zM60.802 22.23h-8.41v3.236h6.944v3.51h-6.943v3.812h8.332v3.51H48.793v-17.58h12.009v3.512zM75.25 22.983c-3.497-2.207-8.767-.15-8.767 4.564 0 4.94 5.579 6.921 8.974 4.413l2.314 2.584a9.512 9.512 0 0 1-5.966 2.106c-5.144 0-9.334-4.087-9.334-9.103s4.19-9.103 9.334-9.103a9.55 9.55 0 0 1 5.76 1.93l-2.315 2.61zM97.335 27.497c0 5.015-4.191 9.102-9.335 9.102-5.142 0-9.335-4.087-9.335-9.102 0-5.016 4.193-9.104 9.335-9.104 5.144 0 9.335 4.088 9.335 9.104zm-14.965 0c0 3.034 2.52 5.491 5.63 5.491 3.113 0 5.632-2.458 5.632-5.491 0-3.034-2.52-5.492-5.631-5.492s-5.631 2.458-5.631 5.492zM117.83 25.466v1.78c0 5.516-4.114 9.353-8.949 9.353h-.026c-5.168-.049-9.282-4.087-9.23-9.128.052-4.99 4.216-9.002 9.334-9.002h.076a9.422 9.422 0 0 1 5.736 2.006l-2.598 2.482c-.926-.627-2.005-.952-3.163-.977h-.051a5.758 5.758 0 0 0-4.038 1.63 5.394 5.394 0 0 0-1.697 3.912 5.472 5.472 0 0 0 1.62 3.961 5.69 5.69 0 0 0 4.037 1.682c2.623 0 4.86-1.832 5.53-4.189h-4.064v-3.51h7.482zM134.108 36.298L123.976 26.04v10.257h-3.6v-17.58h1.131l9.95 9.832v-9.831h3.601v17.579zM149.918 33.039h-7.456l-1.696 3.259h-4.039l9.181-17.579h1.054l8.51 17.579h-3.985l-1.569-3.26zm-1.697-3.511l-1.875-3.913-2.033 3.913h3.908zM158.17 36.272V18.72h3.6v17.553z"></path>
      </g>
      <path fill="#ffffff" stroke="none" pid="4" fill-rule="nonzero" d="M136.144 37l9.147-17.81L146 19l-.04 6.97L140.29 37 136 36.97"></path>
    </g>
  </symbol>

  <!-- ecosystem -->

  <symbol id="welcome" viewBox="0 0 190 155" 
    xmlns="http://www.w3.org/2000/svg">
    <g transform="translate(0 1)" fill="none" fill-rule="evenodd">
      <path d="M63.817 142c10.695-19.265 12.67-28.026 0-19.265-3.106 2.148-35.633 28.903-37.942 27.73-17.41-8.842 14.1-26.692 11.174-27.73-4.933-1.75-11.174 6.495-37.049-5.84 26.716-8.534 39.066-15.73 37.05-21.589C34.006 86.47 0 102.617 13.476 87.49 26.422 72.957 59.07 23.578 87.007.518c6.864-5.665 14.42 36.612 19.13 54.748 1.68 6.47 19.451-54.748 35.011-54.748 15.56 0 46.586 81.645 39.063 79.503-3.556-1.013-11.983 3.172-14.599 0-14.273-17.31 24.91 30.265 23.645 36.873-.648 3.382-18.207-6.456-23.645-8.066-.7-.208-.7 1.14 0 4.042 9.834 12.419 22.984 14.352 23.645 38.696.171 6.313-34.384-15.606-39.254-9.943-4.405 5.123-33.134 5.249-86.186.377z" stroke="#84B5AF" fill="#84B5AF" opacity=".559"/>
      <path d="M60 142.751c20.349 0 40.709.663 61.047 0 51.732-1.687 1.094-3.9 33.406-2.05" stroke="#E8CFEA" stroke-width="6"/>
      <path d="M71.037 144.925a1.038 1.038 0 0 0 0 2.075h80.925a1.038 1.038 0 0 0 0-2.075h-17.918V95.617l17.163 18.22a1.039 1.039 0 0 0 1.51-1.424L134.044 92.59V81.634l17.163 18.22a1.038 1.038 0 1 0 1.51-1.424l-18.673-19.822V67.652l17.163 18.22a1.039 1.039 0 0 0 1.51-1.424l-18.956-20.122a1.058 1.058 0 0 0-.755-.326c-.292 0-.554.123-.743.317L113.295 84.45a1.039 1.039 0 0 0 1.51 1.424l17.164-18.221v10.956l-18.674 19.824a1.039 1.039 0 0 0 1.51 1.423l17.163-18.22v10.956l-18.673 19.823a1.039 1.039 0 0 0 1.51 1.423l17.163-18.22v49.308H91.03V95.617l17.162 18.22c.205.216.48.325.756.325a1.038 1.038 0 0 0 .755-1.75L91.03 92.59V81.634l17.162 18.22c.205.217.48.326.756.326a1.038 1.038 0 0 0 .755-1.75L91.03 78.608V67.652l17.162 18.22c.205.216.48.325.756.325a1.038 1.038 0 0 0 .755-1.75L90.749 64.327c-.09-.09-.186-.15-.286-.201a.98.98 0 0 0-.877-.041c-.162.093-.257.153-.335.233L70.282 84.45a1.039 1.039 0 0 0 1.51 1.424l17.164-18.221v10.956L70.282 98.432a1.039 1.039 0 0 0 1.51 1.423l17.164-18.22v10.956l-18.674 19.823a1.039 1.039 0 0 0 1.51 1.423l17.164-18.22v49.308H71.037z" fill="#5C5C5C" fill-rule="nonzero"/>
    </g>
  </symbol>
  <!-- empty -->
  <symbol id="empty" viewBox="0 0 47 41" 
    xmlns="http://www.w3.org/2000/svg">
    <g transform="translate(-285 -222)" fill="none" fill-rule="evenodd">
      <path d="M304.083 223.135c5.655-.474 11.942.27 17.121 2.72 9.576 4.527 11.953 18.46 7.91 27.364-1.878 4.139-7.303 5.614-11.104 6.682-7.287 2.046-15.697 3.44-22.732.055-3.481-1.675-8.099-6.226-8.863-10.31-.298-1.594-1.212-7.146 1.24-13.6.669-7.703 9.411-12.324 16.428-12.911z" stroke="#B2CFCF" fill="#B2CFCF"/>
      <text font-family="OpenSans-SemiBold, Open Sans" font-size="20" font-weight="500" fill="#787878">
        <tspan x="305.253" y="243">...</tspan>
      </text>
    </g>
  </symbol>
  <!-- empty search -->
  <symbol id="empty-search" viewBox="0 0 203 173" 
    xmlns="http://www.w3.org/2000/svg">
    <g transform="translate(-344 -417)" fill="none" fill-rule="evenodd">
      <path d="M425.677 418.589c25.23-2.07 53.283 1.185 76.39 11.894 42.723 19.8 53.328 80.734 35.294 119.672-8.384 18.102-32.587 24.555-49.547 29.223-32.51 8.948-70.031 15.044-101.418.242-15.533-7.325-36.136-27.228-39.543-45.086-1.331-6.975-5.41-31.255 5.535-59.476 2.98-33.692 41.984-53.9 73.289-56.47z" stroke="#B2CFCF" fill="#B2CFCF"/>
      <path d="M399 560.71c23.267 0 46.547.653 69.802 0 59.152-1.662 1.252-3.843 38.198-2.02" stroke="#E8CFEA" stroke-width="6"/>
      <g transform="rotate(-47 777.32 -226.608)" fill-rule="nonzero">
        <path d="M19.663 0A19.66 19.66 0 1 0 39.32 19.66C39.32 8.803 30.52.001 19.663 0zm0 35.65c-8.831 0-15.99-7.159-15.99-15.99s7.159-15.99 15.99-15.99 15.99 7.159 15.99 15.99c-.005 8.827-7.163 15.98-15.99 15.98v.01z" fill="#4A4A4A"/>
        <path fill="#1E443F" d="M16.852 37.448h5.617v18.724h-5.617z"/>
        <path d="M24.341 65.093c-.006 2.313-2.1 4.186-4.68 4.186-2.585-.001-4.68-1.879-4.682-4.195V47.263c0-2.317 2.096-4.196 4.681-4.198 2.586.002 4.681 1.88 4.681 4.198v17.83z" fill="#4A4A4A"/>
      </g>
    </g>
  </symbol>
  <!-- empty ecosystem -->
  <symbol id="empty-ecosystem" viewBox="0 0 203 173" 
    xmlns="http://www.w3.org/2000/svg">
    <g transform="translate(-618 -200)" fill="none" fill-rule="evenodd">
      <path d="M699.677 201.589c25.23-2.07 53.283 1.185 76.39 11.894 42.723 19.8 53.328 80.734 35.294 119.672-8.384 18.102-32.587 24.555-49.547 29.223-32.51 8.948-70.031 15.044-101.418.242-15.533-7.325-36.136-27.228-39.543-45.086-1.331-6.975-5.41-31.255 5.535-59.476 2.98-33.692 41.984-53.9 73.289-56.47z" stroke="#B2CFCF" fill="#B2CFCF"/>
      <path d="M673 324.755c23.267 0 46.547.654 69.802 0 59.152-1.661 1.252-3.842 38.198-2.02" stroke="#E8CFEA" stroke-width="6"/>
      <path d="M684.875 323.25a.875.875 0 0 0 0 1.75h68.25a.875.875 0 0 0 0-1.75h-15.112v-41.585l14.475 15.366a.876.876 0 0 0 1.274-1.2l-15.75-16.719v-9.24l14.476 15.366a.875.875 0 1 0 1.274-1.2l-15.75-16.718v-9.24l14.476 15.366a.876.876 0 0 0 1.274-1.2l-15.987-16.971c-.003-.004-.007-.005-.01-.007a.871.871 0 0 0-.627-.268.871.871 0 0 0-.627.268c-.002.002-.007.003-.01.007l-15.987 16.971a.876.876 0 0 0 1.274 1.2l14.475-15.366v9.24l-15.75 16.719a.876.876 0 0 0 1.275 1.2l14.474-15.366v9.24l-15.748 16.718a.876.876 0 0 0 1.274 1.2l14.474-15.365v41.584h-34.525v-41.585l14.474 15.366a.872.872 0 0 0 1.237.036.875.875 0 0 0 .037-1.237l-15.748-16.718v-9.24l14.474 15.366a.872.872 0 0 0 1.237.037.875.875 0 0 0 .037-1.237l-15.748-16.718v-9.24l14.474 15.366a.872.872 0 0 0 1.237.037.875.875 0 0 0 .037-1.238l-15.986-16.97c-.003-.004-.008-.005-.01-.008a.858.858 0 0 0-.231-.162c-.019-.01-.033-.026-.052-.035a.881.881 0 0 0-.688 0c-.02.009-.033.026-.051.036a.858.858 0 0 0-.231.162c-.004.003-.008.004-.01.008l-15.988 16.97a.876.876 0 0 0 1.274 1.2l14.475-15.366v9.24l-15.749 16.719a.876.876 0 0 0 1.274 1.2l14.475-15.366v9.24l-15.749 16.718a.876.876 0 0 0 1.274 1.2l14.475-15.365v41.584h-15.112z" fill="#979797" fill-opacity=".21" fill-rule="nonzero"/>
      <path d="M697.412 318.104c6.102-10.597 7.228-15.415 0-10.597-1.772 1.182-20.331 15.898-21.649 15.253-9.933-4.864 8.045-14.682 6.376-15.253-2.815-.962-6.376 3.573-21.139-3.212 15.243-4.694 22.29-8.652 21.139-11.874-1.736-4.86-21.139 4.021-13.45-4.3 7.387-7.993 26.014-35.153 41.954-47.836 3.916-3.116 8.228 20.138 10.915 30.113.958 3.559 11.098-30.113 19.976-30.113 8.878 0 26.58 44.907 22.288 43.729-2.03-.557-6.837 1.745-8.33 0-8.144-9.52 14.213 16.646 13.49 20.28-.368 1.86-10.387-3.55-13.49-4.436-.4-.114-.4.627 0 2.223 5.61 6.831 13.114 7.895 13.49 21.285.099 3.472-19.617-8.584-22.396-5.47-2.513 2.818-18.905 2.887-49.174.208z" stroke="#84B5AF" fill="#84B5AF" opacity=".559"/>
    </g>
  </symbol>

  <!-- arrow -->
  <symbol id="arrow" viewBox="0 0 500 375" 
    xmlns="http://www.w3.org/2000/svg">
    <g transform="translate(-894 -127)" stroke="#979797" fill="none" fill-rule="evenodd">
      <path d="M894 401c107.308-67.198 250.999-145.735 280.902-264.258M1153.695 146.184c14.675-17.782 24.667-22.227 29.977-13.336 5.31 8.89 8.493 15.233 9.55 19.027"/>
    </g>
  </symbol>
  <!--logo vertical -->

  <symbol id="logo-vertical" viewBox="0 0 80 84" 
    xmlns="http://www.w3.org/2000/svg">
    <defs>
      <path id="aa" d="M.042.096h9.524V16H.042z"/>
      <path id="ab" d="M0 83.556h80V0H0z"/>
    </defs>
    <g fill="none" fill-rule="evenodd">
      <path d="M2.811 70.717c.309.013.672.02 1.09.02 1.672 0 2.892-.256 3.658-.768.765-.51 1.147-1.313 1.147-2.403 0-.748-.153-1.35-.456-1.809-.305-.457-.78-.792-1.425-1.005-.645-.212-1.485-.318-2.52-.318-.51 0-.962.017-1.355.05-.394.035-.81.088-1.25.162v5.99c.433.04.803.068 1.111.081zm6.81 7.505l-4.89-6.192c-.355.014-.635.02-.84.02-.709 0-1.44-.027-2.19-.08v6.252H0V63.515a23.06 23.06 0 0 1 4.198-.404c2.085 0 3.629.36 4.636 1.08 1.006.722 1.51 1.839 1.51 3.354.006 1.152-.318 2.085-.973 2.798-.656.714-1.626 1.206-2.908 1.475l5.093 6.404H9.62zM14.892 69.69c-.484.618-.74 1.635-.768 3.05h5.612c-.028-1.422-.272-2.44-.732-3.056-.46-.614-1.135-.922-2.027-.922-.906 0-1.601.31-2.085.928zm6.441 4.185h-7.209c.028.94.185 1.697.473 2.267.286.57.706.983 1.26 1.237.552.255 1.258.382 2.115.382.816 0 1.75-.152 2.8-.454v1.35a10.57 10.57 0 0 1-2.996.454c-1.791 0-3.128-.46-4.01-1.381-.88-.921-1.322-2.392-1.322-4.412 0-1.917.4-3.357 1.198-4.319.8-.962 1.917-1.443 3.356-1.443 1.403 0 2.477.48 3.22 1.438.743.958 1.115 2.413 1.115 4.365v.516zM24.425 77.709c-.876-.934-1.314-2.394-1.314-4.38 0-1.987.472-3.445 1.416-4.377.944-.93 2.338-1.396 4.183-1.396.868 0 1.669.096 2.401.288v1.402a9.41 9.41 0 0 0-2.207-.278c-.919 0-1.671.14-2.256.423-.585.282-1.023.738-1.314 1.37-.29.633-.435 1.475-.435 2.526 0 1.065.134 1.923.403 2.572s.67 1.12 1.2 1.412c.532.292 1.206.438 2.025.438.754 0 1.615-.155 2.584-.464v1.402a8.753 8.753 0 0 1-2.832.464c-1.694 0-2.98-.467-3.854-1.402M39.235 76.756c.537-.677.806-1.81.806-3.397 0-1.614-.269-2.76-.806-3.438-.536-.676-1.32-1.015-2.352-1.015-1.024 0-1.805.336-2.346 1.01-.54.674-.81 1.804-.81 3.392 0 1.608.267 2.754.804 3.437.537.684 1.321 1.026 2.352 1.026 1.032 0 1.816-.339 2.352-1.015m-5.948.938C32.428 76.749 32 75.297 32 73.338c0-1.958.427-3.412 1.282-4.36.854-.948 2.054-1.422 3.601-1.422 1.554 0 2.758.47 3.613 1.412s1.282 2.395 1.282 4.36c0 1.952-.431 3.403-1.293 4.355-.861.952-2.062 1.428-3.602 1.428s-2.738-.472-3.596-1.417M50.148 77.299c.503-.214.92-.53 1.25-.952V69.21a8.926 8.926 0 0 0-2.015-.225c-1.343 0-2.35.353-3.022 1.06-.672.705-1.008 1.829-1.008 3.37 0 1.54.282 2.626.846 3.258.564.631 1.356.947 2.376.947.546 0 1.07-.107 1.573-.321m-4.127 6.13c-.61-.085-1.17-.21-1.68-.372v-1.365c1.17.346 2.287.52 3.35.52.863 0 1.563-.112 2.101-.336.54-.225.942-.587 1.207-1.09.266-.502.4-1.174.4-2.016v-1.069h-.108a3.838 3.838 0 0 1-1.38.962c-.553.235-1.17.352-1.853.352-.848 0-1.605-.185-2.273-.555-.669-.37-1.2-.96-1.595-1.772-.396-.81-.593-1.852-.593-3.12 0-1.97.497-3.445 1.492-4.43.995-.984 2.473-1.48 4.434-1.487.604 0 1.223.045 1.859.133.636.088 1.216.21 1.74.367v10.364c0 1.195-.197 2.163-.592 2.902a3.565 3.565 0 0 1-1.768 1.624c-.783.343-1.777.515-2.984.515-.56 0-1.146-.043-1.757-.128M55.111 67.734h1.419l.115 1.29h.116c.469-.475 1.01-.84 1.623-1.09a5.111 5.111 0 0 1 1.96-.378c1.141 0 2.036.32 2.684.96.648.639.972 1.665.972 3.077v7.518h-1.682v-7.445c0-.93-.204-1.597-.614-2.002-.41-.406-1-.609-1.77-.609-.568 0-1.135.123-1.702.367a3.553 3.553 0 0 0-1.44 1.143v8.546h-1.68V67.734zM71.84 77.502c.474-.22.892-.564 1.253-1.032V73.58l-2.376.269c-.848.089-1.465.302-1.85.64-.384.336-.576.807-.576 1.413 0 .632.174 1.112.521 1.439.348.326.862.49 1.544.49.515 0 1.009-.11 1.484-.33m.992-9.565a2.667 2.667 0 0 1 1.374 1.27c.307.591.46 1.386.46 2.383v7.335h-1.342l-.12-1.248h-.11a3.482 3.482 0 0 1-1.35 1.058 4.268 4.268 0 0 1-1.789.376c-.675 0-1.26-.122-1.754-.366a2.603 2.603 0 0 1-1.138-1.058c-.265-.46-.396-1.004-.396-1.63 0-.99.314-1.755.942-2.295.628-.54 1.627-.88 2.998-1.017l2.486-.278v-.96c0-.667-.102-1.19-.306-1.568a1.691 1.691 0 0 0-.912-.8c-.405-.154-.934-.232-1.59-.232-.447 0-.927.042-1.437.124a8.67 8.67 0 0 0-1.5.382V68.05c.448-.158.956-.28 1.525-.366a10.843 10.843 0 0 1 1.623-.13c.95 0 1.728.128 2.336.382" fill="#2BABA6"/>
      <path d="M77.716 79.111h1.913V67.713h-1.913V79.11zm-.036-14.146c-.232-.185-.347-.446-.347-.782s.118-.6.353-.788c.235-.189.564-.284.986-.284.423 0 .75.095.981.284.23.189.347.452.347.788s-.116.597-.347.782c-.232.186-.558.279-.98.279-.431 0-.762-.093-.993-.279zM37.445 0l12.333 8.302-1.913 2.192-7.525-2.192 5.04 11.99-6.198 15.058-1.55 4.473-.696 4.716 2.603 2.156 2.268-.77.556-1.956-1.323-1.062-1.04.777.826.682.642-.682v1.198l-.642.497-1.68-1.013v-1.459l1.894-1.358 2.754 1.693v2.682l-1.431 2.121-2.824.844-2.603-.586-2.418-2.386-.878-1.378-.093-6.296 2.433-10.134-3.069 2.242-2.689-2.073v-9.66l3.418 1.675L30.762 6.58z" fill="#2BABA6" mask="url(#ac)"/>
      <path fill="#2BABA6" mask="url(#ac)" d="M49.778 8.439l-1.93 2.228-7.594-2.228L37.334 0z"/>
    </g>
  </symbol>

  <!-- Illustration welcome -->
  <symbol id="illustration-welcome" viewBox="0 0 230 170" 
    xmlns="http://www.w3.org/2000/svg">
    <g transform="translate(-756 -350)" fill="none" fill-rule="evenodd">
      <path d="M765.621 492.983c19.977 0 3.657.319-8.5-1.827-.465-.082.531-1.228.997-1.152h12.02c1.017.165 1.55 1.554 2.326 2.332M771 489c1.465-15.908 12-28.356 12-44M783.154 445c1.391 40.593-3.068 26.302 3.846 45" stroke="#E8CFEA" stroke-width="2"/>
      <path d="M787.266 488.763c1.64 0 13.433 1.53 3.052-3.176-.984-.446-2.703-1.06-3.184 0-.934 2.056 3.165 2.933 7.866 3.214M784.492 442c0-82.396 4.698-18.047-2.492-.577M771 428c17.266-46.462 15.589-16.931 22-14.748" stroke="#E8CFEA" stroke-width="2"/>
      <path d="M810.428 351c0 10.927-.963 21.9 0 32.78 9.968 112.687 1.94-39.663 5.572 36.99M817 353.814c10.873 0 21.776-.782 32.619 0 15.228 1.099 28.931 6.88 45.032 4.699 46.19-6.256 14.774-9.24 63.976-6.482.664.037.216 1.267.324 1.9M960 353c0 5.62-9.042 98.9-11 73.684" stroke="#979797"/>
      <path d="M938.706 436c-213.567-6.214 130.874 5.452-55.088-5.855-25.157-1.53-50.412-.763-75.618-1.145" stroke="#979797"/>
      <path d="M788.004 388.08c16.346 22.166 14-9.027 10.36-11.01-9.322-5.077-16.29 9.348-6.926 13.114" stroke="#E8CFEA" stroke-width="4"/>
      <path d="M829 381.203c13.49 6.52-6.84-7.388 9.757.323 1.317.612 2.991 1.348 4.282.68 4.402-2.278-3.955-6.395 5.014-5.822 2.279.146 3.894 3.125 6.177 3.059 2.597-.076 4.448-3.445 7.047-3.443 3.284.002 5.997 3.147 9.268 3.455 10.914 1.027 26.692.356 37.455-.028M829 398.194c6.978 0 .6-1.006 6.53 4.587.468.44 1.298.097 1.935 0l7.902-5.844c10.733-1.633 21.722-.72 32.572-.313.928.035 1.329 1.599 2.257 1.62 8.605.203 17.203-.64 25.804-.96" stroke="#979797"/>
      <path d="M792 410.96c12.147 7.45 5.894 3.49 15-2.96" stroke="#E8CFEA" stroke-width="3"/>
      <path d="M810 409c8.646-17.986 3.575-9.696 15-25" stroke="#3B928F" stroke-width="3"/>
      <path d="M836 518.644c8.735-3.307 19.042-.792 28 .356" stroke="#3B928F"/>
      <path d="M863 519c0-25.27-25.67-29.531-30-2.865" stroke="#3B928F" fill="#8ABEBC"/>
      <path d="M853 496l10-11M849 494l-13-12M862.416 483.677c3.425-10.113 2.257 10.805.264 5.422-5.288-14.284 3.744-8.933 2.122-2.928-2.898 10.729 1.484-11.606-1.558-1.624M836.561 483.423c10.315-12.825-.21 6.363-2.942.391-2.816-6.154 5.052-9.144 2.213-4.665" stroke="#3B928F"/>
      <path d="M836.352 480.05c-5.343.53.343-8.595.296 2.98-.046 10.96 1.758-12.435-2.387-5.835-.703 1.119.224 2.6.336 3.9M896 518.644c8.735-3.307 19.042-.792 28 .356M923 519c0-25.27-25.67-29.531-30-2.865" stroke="#3B928F"/>
      <path d="M901.95 512.266c0-8.018-1.005-.97 3.591-7.796.43-.637.27-3.099.315-2.319.062 1.096-.637 13.254-1.02 12.574-1.516-2.692 2.238-7.332 0-9.393-1.755-1.615-.981 5.358-2.943 6.683-1.25.844-1.129-5.712 0-4.695l2.515 3.689c.398.359 1.356.502 1.573 0 .477-1.106 0-4.86 0-3.645v5.573c0-2.154-1.577-5.091 0-6.463 1.27-1.105.97 6.22 1.913 4.798h2.516c.603-.91.683-2.969-.318-3.313-1.762-.605-3.56 1.452-5.41 1.345-.524-.03-.376-2.042 0-1.656h4.087c2.238 2.297 3.54 11.882 4.403 8.718 1.006-3.692-4.125-6.961-3.838-10.79.206-2.763 2.264 5.124 4.114 7.093.479.51 1.179-1.621.63-2.043l-3.873-5.082c-.606-.466-.123 1.706.315 2.347 1.305 1.914 2.793 3.827 4.717 5.03.571.357.45-1.617-.03-2.1l-4.24-4.806c-2.612-2.618 8.899 6.717 5.346 2.643-1.1-1.26-2.597-2.058-3.895-3.086" stroke="#499A97"/>
      <path d="M913 496l10-11M909 494l-13-12M922.416 483.677c3.425-10.113 2.257 10.805.264 5.422-5.288-14.284 3.744-8.933 2.122-2.928-2.898 10.729 1.484-11.606-1.558-1.624M896.561 483.423c10.315-12.825-.21 6.363-2.942.391-2.816-6.154 5.052-9.144 2.213-4.665" stroke="#3B928F"/>
      <path d="M896.352 480.05c-5.343.53.343-8.595.296 2.98-.046 10.96 1.758-12.435-2.387-5.835-.703 1.119.224 2.6.336 3.9" stroke="#3B928F" fill="#2BABA6"/>
      <path d="M956 518.644c8.735-3.307 19.042-.792 28 .356" stroke="#3B928F"/>
      <path d="M983 519c0-25.27-25.67-29.531-30-2.865" stroke="#3B928F" fill="#8ABEBC"/>
      <path d="M973 496l10-11M969 494l-13-12M982.416 483.677c3.425-10.113 2.257 10.805.264 5.422-5.288-14.284 3.744-8.933 2.122-2.928-2.898 10.729 1.484-11.606-1.558-1.624M956.561 483.423c10.315-12.825-.21 6.363-2.942.391-2.816-6.154 5.052-9.144 2.213-4.665" stroke="#3B928F"/>
      <path d="M956.352 480.05c-5.343.53.343-8.595.296 2.98-.046 10.96 1.758-12.435-2.387-5.835-.703 1.119.224 2.6.336 3.9M844.127 511.63c0-15.021-.826 1.87 1.732 1.68 2.443-.18.915-6.579 3.352-6.332 2.374.241-.355 8.431 1.346 6.81 4.557-4.344-.678-16.466 3.443-4.968" stroke="#3B928F"/>
    </g>
  </symbol>

  <!-- Illustration email -->
  <symbol id="illustration-email" viewBox="0 0 164 90" 
    xmlns="http://www.w3.org/2000/svg">
    <g transform="translate(0 1)" stroke="#E8CFEA" fill="none" fill-rule="evenodd">
      <path d="M5.11 12.473c14.86 7.94-19.146-10.691 18.667 16.207 2.55 1.813 36 22.135 45.493 24.703 5.961 1.613 12.955 4.578 18.445 1.75 13.175-6.788 21.91-20.065 33.93-28.735C133.685 17.714 147 10.951 159.68 3.227"/>
      <path d="M4.266 12.3c21.386 4.271-11.428-4.238 14.132 13.794C28.4 33.15 69.83 52.172 84.336 56.637" stroke-width="3"/>
      <path d="M95.137 48.875c22.295 2.02 43.24 23.811 64.289 35.07"/>
      <path d="M80.352 53.926c10.926.417 11.774-4.387 21.726-7.86" stroke-width="2"/>
      <path d="M132.32 51c0-41.508-.813-6.975 4.364 1.727 1.115 1.874-2.077-7.209 0-6.543h4.828c2.364.757 4.136 4.374 6.504 3.629.95-.3-3.873-20.799-1.977-5.45" stroke-width="6" opacity=".2"/>
      <path d="M130.281 46.367c-1.015 37.703-9.794-14.472-12.152-11.52-2.322 2.908 3.643 7.408 2.379 10.907-1.748 4.836-11.408-3.69-11.555-3.703-1.253-.113.447 3.11 1.676 3.383 4.427.98 9.104-.571 13.601 0 2.01.255 3.935 1.237 5.57 2.433 2.272 1.66 4.221 3.768 5.95 5.988 3.536 4.541 6 9.89 9.79 14.223 1.153 1.32 2.99 1.976 4.702 2.352 1.954.429 4.163-.791 6 0 1.12.482 1.609 4.5 1.621 3.28.422-41.63-.57-14.56-6.808-49.05-.81-4.472-.201-18.123-.766-13.613-4.468 35.679 3.557 8.81-2.078 26.105" stroke-width="6" opacity=".2"/>
      <path d="M152.266 55.633c-.292-12.341-.362-24.69-.875-37.024-.215-5.157 2.766 34.334-6.141 25.555-3.01-2.966-9.538-6.736-7.332-10.34v-2.648c.282-.461 1.15-.265 1.621 0l14.02 12.648c1.39.78.638-3.323 0-4.785-2.316-5.307-5.361-19.817-8.66-15.059-5.323 7.678 4.762 20.19-.329 28.024-3.069 4.723-9.767-20.149-8.328-14.703 3.093 11.698 4.852 25.15 13.363 33.75 2.487 2.512-3.492-47.212 6.485-4.38 1.122 4.818 1.823 19.687 1.676 14.743-.582-19.553-1.535-39.101-2.98-58.61-.128-1.716-.793-3.419-1.724-4.866a8.319 8.319 0 0 0-3.28-2.918c-4.435-2.172-5.693 9.932-10.7 12.203-10.078 4.57-23.453 6.835-17.57 23.965.737 2.146 23.219 17.667 29.457 21.574" stroke-width="6" opacity=".2"/>
      <path d="M59.152 48.035c-3.595 0-7.696-1.84-10.785 0-6.614 3.941-10.592 11.216-16.441 16.223C21.237 73.408 15.299 75.39 2.879 81.53M19.352 9.082c29.675-.587 59.183-2.375 88.703-4.383 15.91-1.082 40.53-10.603 54.28 1.922M162.336 6.621l.648 79.152M162.984 85.773c-32.268 3.887-62.516.398-94.539-1.164-16.71-.815-33.46-.079-50.187-.351-4.314-.07-8.649-.11-12.926-.676-.779-.103-1.312-.865-1.969-1.297"/>
      <path d="M3.688 81.96c-.224-5.157-9.575-60.506 5.816-74.28 1.605-1.437 4.176-1.486 6.324-1.325.999.075 1.513 1.313 2.27 1.97"/>
    </g>
  </symbol>

  <!-- Illustration password -->
  <symbol id="illustration-password" viewBox="0 0 159 34" 
    xmlns="http://www.w3.org/2000/svg">
    <g transform="translate(0 1)" stroke="#E8CFEA" stroke-width="2" fill="none" fill-rule="evenodd">
      <g transform="translate(0 12)">
        <path d="M10 3c7.607 12.135 2.62 6.086 16.086 17.156M5 19.86C10.436 8.21 6.194 15.68 21.43 0M0 8.973c18.036 0 9.698.876 25.074-1.973"/>
      </g>
      <g transform="translate(35 9)">
        <path d="M3 7c10.627 3.291 3.829.517 18.59 11.813M5 18.355L19.082 0M0 11.703c13.158 0 5.254 1.008 22.945-6.703"/>
      </g>
      <g transform="translate(62 6)">
        <path d="M2 6l19.59 14.574M3 20.594L22.105 0M0 14.215L25.938 10"/>
      </g>
      <g transform="translate(132)">
        <path d="M2 6l19.59 14.574M3 20.594L22.105 0M0 14.215L25.938 10"/>
      </g>
      <g transform="translate(99 7)">
        <path d="M6 17.492C7.011 7.687 9.173 6.408 16.973 0M0 0c17.21 8.301 10.56 2.831 21.078 14.934M0 7.676L21.887 5"/>
      </g>
    </g>
  </symbol>

  <!-- Illustration step -->
  <symbol id="illustration-step" viewBox="0 0 126 171" 
    xmlns="http://www.w3.org/2000/svg">
    <path d="M8.64 116.145c0-15.003 14.243-22.517 20.454-35.157C43.63 51.403 44.254 27.156 73.816 5.781c18.305-13.235 47.746 4.616 49.914 25.399 1.612 15.451-2.557 35.04-14.562 46C94.139 90.9 82.69 88.785 74.254 104.09c-10.383 18.836-18.62 47.226-35.89 61.2-16.52 13.365-35.35-11.17-36.583-25.587-1.598-18.694 1-16.717 9.461-37.414" stroke="#E8CFEA" stroke-width="2" fill="none" fill-rule="evenodd"/>
  </symbol>

  <!-- Illustration thank you -->
  <symbol id="illustration-thankyou" viewBox="0 0 146 113" 
    xmlns="http://www.w3.org/2000/svg">
    <defs>
      <path id="aa" d="M0 .246h145.26V71H0z"/>
      <path id="ac" d="M.184.625h141.868v40.62H.184z"/>
    </defs>
    <g transform="translate(0 -1)" fill="none" fill-rule="evenodd">
      <path d="M144.21 42.18a1.556 1.556 0 0 0-1.341 0 1.8 1.8 0 0 0-.562.44h2.493a1.787 1.787 0 0 0-.59-.44" fill="#E7CEE9"/>
      <g transform="translate(0 42.375)">
        <path d="M142.307.246c-.595.663-.883 1.758-1.12 2.682l-.09.342c-4.502 16.672-14.782 33.546-28.202 46.294-16.276 15.46-44.373 22.838-68.322 17.942-17.962-3.672-31.397-13.896-37.83-28.79-2.168-5.021-2.865-10.67-3.538-16.134-.342-2.783-.697-5.661-1.242-8.45L0 14.516c.532 2.719.882 5.562 1.22 8.31.69 5.604 1.404 11.399 3.688 16.684 6.699 15.51 20.643 26.149 39.264 29.956C49.24 70.502 54.486 71 59.774 71c20.33 0 41.228-7.381 54.498-19.986 13.536-12.858 23.94-29.848 28.61-46.69h1.912c0-.276.109-.702.212-1.113.214-.844.53-2.152-.206-2.965h-2.493z" fill="#E7CEE9" mask="url(#ab)"/>
      </g>
      <path d="M51.943 23.09c-.52.173-.695.688-.52 1.03.347 1.374 0 2.575-1.046 3.605-2.437 2.232-8.182 2.746-12.185 1.202-1.044-.515-1.915-1.202-2.263-2.06-.87-2.231.523-4.978.523-4.978.174-.342 0-.858-.349-1.201-.348-.172-.87 0-1.219.343 0 .172-1.044 2.403-.87 4.635l-3.133.686c-.523.172-.697.515-.697 1.03 0 .343.523.687.871.687h.174l2.96-.515c.347.858 1.043 1.716 1.74 2.23l-1.74 2.576c-.349.343-.175.858.174 1.2.173.173.348.173.521.173.348 0 .523-.172.697-.344l1.915-2.746c.87.344 1.741.515 2.61.687l-.173 3.432c0 .516.348.859.87.859s.87-.343.87-.86l.174-3.26h1.22c3.307 0 6.44-.858 8.355-2.574 1.567-1.373 2.088-3.261 1.567-5.321-.175-.343-.524-.686-1.046-.515" fill="#66AE9E"/>
      <g transform="translate(2 .375)">
        <path d="M97.778 39.448c-.72-.105-2.27-.415-4.115-1.203a17.64 17.64 0 0 1-4.479-2.757c-3.272-2.777-6.24-7.442-6.495-15.27C82.164 4.581 98.13 3.323 98.831 3.323c.175 0 6.315-.359 12.632 2.336 3.765 1.543 6.617 4.152 8.35 7.586.285.567.55 1.15.773 1.761 1.754 4.492 1.403 9.525-.877 14.198-2.52 5.015-6.4 7.667-10.206 9.041-5.47 1.975-10.794 1.31-11.725 1.203m-35.44-16.355v1.618c0 3.857-2.58 8.236-6.154 11.044-1.089.856-2.266 1.572-3.495 2.076-6.667 2.875-19.475 1.078-22.807-.36-1.69-.779-4.64-2.939-6.698-6.61-2.214-3.952-3.393-9.655-.847-17.293 3.158-9.526 12.105-10.964 17.72-10.964 2.631 0 4.562.36 4.737.36 18.246 3.774 17.72 14.018 17.544 20.13m58.598 6.65c.508-.989.917-1.994 1.248-3.007.814-2.49 1.108-5.043.858-7.598 0 0 .174 0 .174-.18 7.02-7.189 15.265-14.557 17.195-15.276.176.18.526.18.702.18.877 0 1.053-.36.877-.899-.176-.36-.35-.719-.877-.899-1.93-.539-10.878 7.728-18.07 15.097-.176-.899-.353-1.977-.703-2.876-.046-.123-.107-.238-.156-.359-.092-.23-.194-.456-.295-.682-1.866-4.185-5.187-7.556-9.725-9.382-6.842-2.876-13.158-2.517-13.509-2.517-.176 0-18.246 1.438-17.72 18.692v.898c-7.544-4.313-14.035-1.617-16.843 0 0-6.47-1.403-16.175-19.123-19.949-.175 0-19.299-3.595-24.562 11.862a19.315 19.315 0 0 0-1.053 4.313C11.986 9.793 3.214 1.526 1.108 2.065c-.35.18-.702.36-.877.9-.176.538.175.898.526 1.077.175 0 .527 0 .702-.179 1.93.718 10.176 8.267 17.194 15.276 0 0 .175 0 .175.18-.714 6.903 1.604 11.967 4.356 15.29 1.978 2.385 4.177 3.88 5.644 4.48.921.362 2.42.783 4.253 1.156 2.707.552 6.152 1 9.603 1h.008c2.888 0 5.877-.337 8.39-1a18.939 18.939 0 0 0 1.957-.617 16.267 16.267 0 0 0 3.145-1.78c4.403-3.155 7.558-8.444 7.558-13.137v-1.618c1.403-1.078 8.597-5.392 17.193.18.991 7.661 4.62 12.047 8.25 14.553.21.146.421.286.631.42 3.218 2.037 6.315 2.656 7.436 2.82.525 0 1.752.18 3.678.18h.01c3.211 0 7.885-.519 12.19-3 2.985-1.722 5.794-4.38 7.806-8.503" fill="#E7CEE9" mask="url(#ad)"/>
      </g>
      <path d="M119.185 25.423c0-.683-.348-1.025-.871-1.196l-2.96-.512c.176-2.391-.87-4.611-.87-4.611-.173-.342-.695-.683-1.218-.342-.35.17-.696.683-.35 1.196 0 0 1.395 2.903.525 4.953-.35.853-1.045 1.537-2.264 2.049-4.004 1.537-9.748 1.025-12.185-1.196-1.044-1.024-1.393-2.22-1.044-3.586.174-.512-.175-.854-.523-1.025-.522-.17-.871.17-1.044.513-.522 2.049 0 3.928 1.567 5.294 1.914 1.708 5.048 2.562 8.355 2.562h1.218l.175 3.245c0 .512.347.854.87.854.522 0 .87-.342.87-.854l-.174-3.416c.87-.171 1.74-.342 2.61-.683l1.917 2.733c.173.17.522.34.696.34.174 0 .348 0 .522-.17.348-.341.523-.854.174-1.195l-1.74-2.562c.87-.513 1.392-1.366 1.74-2.22l2.959.512h.174c.349 0 .696-.342.87-.683" fill="#66AE9E"/>
    </g>
  </symbol>
</svg>


