<svg width="2px" height="10px" viewBox="0 0 2 10" version="1.1" 
  xmlns="http://www.w3.org/2000/svg" 
  xmlns:xlink="http://www.w3.org/1999/xlink">
  <!-- Generator: Sketch 48.1 (47250) - http://www.bohemiancoding.com/sketch -->
  <desc>Created with Sketch.</desc>
  <defs></defs>
  <g id="Master-Ecosystem--flow" stroke="none" stroke-width="1" fill="none" fill-rule="evenodd">
    <g id="Eco-4-hover" transform="translate(-333.000000, -748.000000)" fill="#FFFFFF">
      <g id="mini-modal" transform="translate(235.000000, 729.000000)">
        <g id="Group-3">
          <g id="Group-2" transform="translate(91.000000, 16.000000)">
            <path d="M8,5 C7.44774477,5 7,4.55140187 7,3.99945025 C7,3.44749863 7.44774477,3 8,3 C8.55225523,3 9,3.44749863 9,3.99945025 C9,4.55140187 8.55225523,5 8,5 L8,5 Z" id="Path" transform="translate(8.000000, 4.000000) rotate(180.000000) translate(-8.000000, -4.000000) "></path>
            <path d="M9,12.0001571 C9,12.5501257 8.55005501,13 8,13 C7.44994499,13 7,12.5501257 7,12.0001571 L7,6.99984287 C7,6.44987429 7.44994499,6 8,6 C8.55005501,6 9,6.44987429 9,6.99984287 L9,12.0001571 Z" id="Path" transform="translate(8.000000, 9.500000) rotate(180.000000) translate(-8.000000, -9.500000) "></path>
          </g>
        </g>
      </g>
    </g>
  </g>
</svg>