<svg width="50px" height="50px" viewBox="0 0 50 50" version="1.1"
  xmlns="http://www.w3.org/2000/svg"
  xmlns:xlink="http://www.w3.org/1999/xlink">
  <!-- Generator: Sketch 48.1 (47250) - http://www.bohemiancoding.com/sketch -->
  <desc>Created with Sketch.</desc>
  <defs></defs>
  <g id="Symbols" stroke="none" stroke-width="1" fill="none" fill-rule="evenodd">
    <g id="Action-bar-hover" transform="translate(-541.000000, -20.000000)" fill="#234240" fill-rule="nonzero">
      <g id="Group-3" transform="translate(315.000000, 19.000000)">
        <g id="answer" transform="translate(226.000000, 1.000000)">
          <g id="Group">
            <path d="M38.0524345,49.924812 C37.6217228,49.924812 37.1910112,49.7932331 36.835206,49.5488722 L24.6816479,41.0902256 C18.2022472,41.0338346 12.0973783,38.9661654 7.47191011,35.2443609 C2.64044944,31.3533835 -2.13162821e-14,26.1654135 -2.13162821e-14,20.5827068 C-2.13162821e-14,15.018797 2.65917603,9.81203008 7.47191011,5.92105263 C12.1535581,2.14285714 18.3520599,0.0751879699 24.9250936,0.0751879699 C31.4981273,0.0751879699 37.6966292,2.14285714 42.3782772,5.92105263 C47.2097378,9.81203008 49.8501873,15 49.8501873,20.5827068 C49.8501873,27.2556391 46.011236,33.3834586 39.494382,37.2368421 L40.2059925,47.612782 C40.2621723,48.4398496 39.8501873,49.2293233 39.1198502,49.6428571 C38.7827715,49.8308271 38.4082397,49.924812 38.0524345,49.924812 Z M25.3370787,36.8421053 C25.7677903,36.8421053 26.1985019,36.9360902 26.5543071,37.1804511 L35.5992509,43.4398496 L35.093633,36.1654135 C35.0374532,35.3007519 35.4868914,34.4924812 36.2546816,34.0977444 C42.0599251,31.0714286 45.5430712,26.0338346 45.5430712,20.6015038 C45.5430712,11.6729323 36.2921348,4.41729323 24.9250936,4.41729323 C13.5393258,4.39849624 4.28838951,11.6541353 4.28838951,20.5827068 C4.28838951,29.5112782 13.5393258,36.7669173 24.906367,36.7669173 C25.0187266,36.7669173 25.1498127,36.8045113 25.2621723,36.8045113 L25.2996255,36.8421053 C25.2996255,36.8421053 25.3183521,36.8421053 25.3370787,36.8421053 Z" id="Shape"></path>
            <path d="M35.4494382,13.5902256 C34.8689139,13.0075188 33.9138577,13.0075188 33.3333333,13.5902256 L21.7790262,25.1879699 L15.1123596,18.4962406 C14.5318352,17.9135338 13.576779,17.9135338 12.9962547,18.4962406 C12.4157303,19.0789474 12.4157303,20.037594 12.9962547,20.6203008 L20.6741573,28.3270677 C20.7865169,28.4398496 20.917603,28.5338346 21.0486891,28.5902256 C21.2734082,28.7218045 21.5355805,28.7969925 21.7977528,28.7969925 C22.1722846,28.7969925 22.5655431,28.6466165 22.8651685,28.3646617 L35.4868914,15.6954887 C36.0486891,15.1315789 36.0486891,14.1729323 35.4494382,13.5902256 Z" id="Shape"></path>
          </g>
        </g>
      </g>
    </g>
  </g>
</svg>
