<svg width="24px" height="28px" viewBox="0 0 24 28" version="1.1"
  xmlns="http://www.w3.org/2000/svg"
  xmlns:xlink="http://www.w3.org/1999/xlink">
  <!-- Generator: Sketch 48.1 (47250) - http://www.bohemiancoding.com/sketch -->
  <desc>Created with Sketch.</desc>
  <defs></defs>
  <g id="Page-1" stroke="none" stroke-width="1" fill="none" fill-rule="evenodd">
    <g id="bell" fill="#000000" fill-rule="nonzero">
      <g id="Group">
        <g id="Shape">
          <path d="M21.5989983,16.8518519 C22.9221831,16.8518519 24,18.0138679 24,19.4444444 C24,20.8749648 22.922429,22.037037 21.5952513,22.037037 L2.40474874,22.037037 C1.0764959,22.037037 0,20.8767773 0,19.4444444 C0,18.0141504 1.07568274,16.8518519 2.40100171,16.8518519 C2.66429621,16.8518519 2.88,16.6186952 2.88,16.3324294 L2.88,10.1107219 C2.88,4.66844384 6.96248078,0.259259259 12,0.259259259 C17.0375283,0.259259259 21.12,4.66952277 21.12,10.1107219 L21.12,16.3324294 C21.12,16.621601 21.3332501,16.8518519 21.5989983,16.8518519 Z M21.5989983,17.8888889 C20.803161,17.8888889 20.16,17.1944535 20.16,16.3324294 L20.16,10.1107219 C20.16,5.24225271 16.5073259,1.2962963 12,1.2962963 C7.49263018,1.2962963 3.84,5.24123107 3.84,10.1107219 L3.84,16.3324294 C3.84,17.1912924 3.19462171,17.8888889 2.40100171,17.8888889 C1.60593077,17.8888889 0.96,18.5868311 0.96,19.4444444 C0.96,20.3035129 1.60620485,21 2.40474874,21 L21.5952513,21 C22.3925994,21 23.04,20.3018314 23.04,19.4444444 C23.04,18.5870656 22.3924128,17.8888889 21.5989983,17.8888889 Z M8.16,23.5925926 L9.12,23.5925926 C9.12,25.3108118 10.4094199,26.7037037 12,26.7037037 C13.5905801,26.7037037 14.88,25.3108118 14.88,23.5925926 L15.84,23.5925926 C15.84,25.8835516 14.1207734,27.7407407 12,27.7407407 C9.87922656,27.7407407 8.16,25.8835516 8.16,23.5925926 Z"></path>
        </g>
      </g>
    </g>
  </g>
</svg>
