<svg xmlns="http://www.w3.org/2000/svg" 
  xmlns:xlink="http://www.w3.org/1999/xlink" version="1.1" x="0px" y="0px" viewBox="0 0 24 30" style="enable-background:new 0 0 24 24;" xml:space="preserve">
  <g>
    <path d="M12,24.001c-0.288,0-0.575-0.054-0.836-0.16L0.961,19.697C0.368,19.457,0,18.976,0,18.442V5.557   c0-0.533,0.368-1.014,0.961-1.255l10.202-4.144c0.523-0.212,1.149-0.212,1.672,0l10.203,4.144C23.632,4.542,24,5.023,24,5.557   v12.885c0,0.534-0.368,1.015-0.961,1.255l0,0c-0.001,0-0.001,0-0.001,0.001l-10.202,4.143C12.575,23.947,12.287,24.001,12,24.001z    M12,1c-0.16,0-0.321,0.028-0.461,0.085L1.337,5.229C1.139,5.31,1,5.444,1,5.557v12.885c0,0.113,0.139,0.248,0.337,0.329   l10.202,4.144c0.28,0.113,0.641,0.113,0.921,0l10.203-4.145C22.861,18.69,23,18.556,23,18.442V5.557   c0-0.113-0.139-0.248-0.337-0.328L12.46,1.085C12.321,1.029,12.16,1,12,1z"/>
    <polygon points="12.5,23.5 11.5,23.5 11.5,10.333 0.769,5.837 1.155,4.915 12.193,9.539 12.5,10  "/>
    <rect x="11.055" y="7.285" transform="matrix(0.9224 -0.3862 0.3862 0.9224 -1.6651 7.2817)" width="12.467" height="1"/>
  </g>
  <text x="0" y="39" fill="#000000" font-size="5px" font-weight="bold" font-family="'Helvetica Neue', Helvetica, Arial-Unicode, Arial, Sans-serif">Created by ✦ Shmidt Sergey ✦</text>
  <text x="0" y="44" fill="#000000" font-size="5px" font-weight="bold" font-family="'Helvetica Neue', Helvetica, Arial-Unicode, Arial, Sans-serif">from the Noun Project</text>
</svg>