<svg width="50px" height="47px" viewBox="0 0 50 47" version="1.1"
  xmlns="http://www.w3.org/2000/svg"
  xmlns:xlink="http://www.w3.org/1999/xlink">
  <!-- Generator: Sketch 48.1 (47250) - http://www.bohemiancoding.com/sketch -->
  <desc>Created with Sketch.</desc>
  <defs></defs>
  <g id="Symbols" stroke="none" stroke-width="1" fill="none" fill-rule="evenodd">
    <g id="Action-bar-hover" transform="translate(-315.000000, -20.000000)" fill="#234240" fill-rule="nonzero">
      <g id="Group-3" transform="translate(315.000000, 19.000000)">
        <g id="noubrainn_1018804_cc" transform="translate(0.000000, 1.000000)">
          <g id="Group">
            <path d="M47.1288462,25.4090053 C47.3038462,25.2290594 47.4730769,25.0432668 47.6320513,24.8496786 C47.6384615,24.8418832 47.6455128,24.8347373 47.6519231,24.8256425 C47.8320513,24.6047702 48.0012821,24.3754528 48.1602564,24.1376902 C48.1615385,24.1350917 48.1628205,24.1324932 48.1653846,24.1285954 C48.3192308,23.8973291 48.4634615,23.6576177 48.5961538,23.4120596 C48.6025641,23.3984175 48.6096154,23.3860746 48.6173077,23.3724325 C48.8775641,22.8839149 49.0929487,22.3700619 49.2621795,21.8360705 C49.275641,21.7925457 49.2897436,21.7490209 49.3032051,21.7061456 C49.3820513,21.4423981 49.4519231,21.1754024 49.5070513,20.9032097 C49.5083333,20.8915165 49.5096154,20.8811225 49.5121795,20.8700789 C49.5621795,20.617375 49.6,20.3614229 49.6288462,20.1028724 C49.6365385,20.0353114 49.6423077,19.9677505 49.6487179,19.8995399 C49.6737179,19.6266976 49.6897436,19.3512568 49.6897436,19.0732175 C49.6897436,18.8562429 49.6794872,18.6373195 49.6647436,18.4177464 C49.6608974,18.3631779 49.6544872,18.3086095 49.65,18.254041 C49.6384615,18.1397071 49.6314103,18.0247235 49.6173077,17.9110393 L49.6083333,17.9116889 C49.1814103,14.6310851 46.9769231,11.807817 43.924359,10.6183545 C44.0160256,10.1025526 44.0711538,9.57440792 44.0711538,9.03197145 C44.0711538,4.08053343 40.0961538,0.0522118462 35.2096154,0.0522118462 C35.1858974,0.0522118462 35.1634615,0.0535110953 35.1397436,0.0535110953 C35.1294872,0.0535110953 35.1198718,0.0522118462 35.1083333,0.0522118462 C35.0833333,0.0522118462 35.0583333,0.0561095933 35.0333333,0.0561095933 C34.9608974,0.0574088423 34.8878205,0.0580584668 34.8153846,0.0613065894 L34.8153846,0.0678028345 C29.8525641,0.230208962 26.2782051,4.43912616 26.2782051,10.2103903 L26.2782051,45.2004657 C26.2782051,45.8435939 26.7442308,46.3905778 27.3724359,46.4860726 C28.3128205,46.6283403 29.3628205,46.7030472 30.4070513,46.7030472 C37.0916667,46.7030472 41.2608974,43.9077129 41.3134615,39.4038662 C44.2333333,37.8395704 46.0737179,34.7941306 46.0737179,31.4089373 C46.0737179,29.8823197 45.6878205,28.3842856 44.9679487,27.058402 C45.1070513,26.9836952 45.2397436,26.8972951 45.3737179,26.8134935 C45.4339744,26.7777642 45.4929487,26.7426845 45.5512821,26.7043566 C45.6705128,26.6270513 45.7891026,26.5471475 45.9044872,26.4646452 C46.0294872,26.3743474 46.1525641,26.2808014 46.2724359,26.1853066 C46.3365385,26.1346359 46.4025641,26.087863 46.4641026,26.0345938 C46.6583333,25.8721876 46.8423077,25.6993875 47.0211538,25.52204 C47.0576923,25.4837122 47.0942308,25.4466836 47.1288462,25.4090053 Z M43.5096154,31.4076381 C43.5096154,33.5189177 42.500641,35.4437552 40.850641,36.6403635 C39.8089744,34.1042294 37.3410256,32.3567395 34.5115385,32.3567395 C33.8128205,32.3567395 33.124359,32.4632779 32.4621795,32.6737562 L33.2282051,35.1527234 C33.6423077,35.0208496 34.0730769,34.9545879 34.5115385,34.9545879 C36.5608974,34.9545879 38.3076923,36.4175423 38.7205128,38.4170865 C38.7057692,38.528822 38.700641,38.6431559 38.7141026,38.7594387 C38.7378205,38.9458809 38.749359,39.1323231 38.749359,39.3148676 C38.749359,43.757 32.3653846,44.1019506 30.4070513,44.1019506 C29.8788462,44.1019506 29.3519231,44.080513 28.8423077,44.0382874 L28.8423077,10.2097407 C28.8423077,6.60302541 30.7705128,2.72866483 34.9923077,2.65655651 C35.0871795,2.65330838 35.1801282,2.65785576 35.275,2.65850538 C38.7019231,2.74815356 41.4647436,5.56817356 41.4647436,9.03197145 C41.4647436,9.73096742 41.3519231,10.4176205 41.1326923,11.0730917 C41.1025641,11.1620902 41.0826923,11.2530376 41.0724359,11.3452843 C40.1557692,13.7222604 37.8762821,15.4138826 35.2096154,15.4138826 C34.6371795,15.4138826 34.0679487,15.3352781 33.5179487,15.1800178 L32.8294872,17.6836707 C33.6044872,17.9019445 34.4044872,18.0130303 35.2096154,18.0130303 C38.6564103,18.0130303 41.6423077,16.0043913 43.1070513,13.0856284 C45.2692308,13.9691177 46.8141026,16.0043913 47.0807692,18.3521343 C47.1070513,18.5937946 47.125641,18.8367542 47.125641,19.0738671 C47.125641,19.2771996 47.1141026,19.4779336 47.0955128,19.6773683 C47.0903846,19.738433 47.0820513,19.7988481 47.074359,19.8592632 C47.0570513,19.9995821 47.0365385,20.1386017 47.0115385,20.2763221 C46.9987179,20.3399853 46.9865385,20.4036485 46.9724359,20.4673117 C46.9410256,20.6089298 46.9057692,20.7485991 46.8660256,20.8863195 C46.8512821,20.9363406 46.8384615,20.9863617 46.8237179,21.0357331 C46.7044872,21.4105665 46.5544872,21.7711081 46.3730769,22.1128106 C46.350641,22.1550362 46.325641,22.1972618 46.3019231,22.2394874 C46.2333333,22.3642153 46.1602564,22.4863447 46.0826923,22.605226 C46.0474359,22.6584952 46.0128205,22.7111148 45.9762821,22.7630847 C45.9051282,22.8670246 45.8294872,22.9677164 45.7519231,23.067109 C45.7083333,23.1229767 45.6653846,23.1801437 45.6192308,23.2353617 C45.5480769,23.3211122 45.4724359,23.4023152 45.3961538,23.4835183 C45.1192308,23.7823456 44.8153846,24.0577864 44.4833333,24.2994467 C44.4794872,24.3033444 44.475641,24.3059429 44.4705128,24.3098407 C43.925641,24.7041628 43.3108974,25.0192306 42.6423077,25.2336067 C42.6224359,25.240103 42.6057692,25.2511466 42.5871795,25.2589421 C42.0051282,25.4362896 41.3878205,25.5356821 40.7480769,25.5356821 C38.7397436,25.5356821 36.8269231,24.5599461 35.6301282,22.9274397 L33.5717949,24.4761446 C35.249359,26.766071 37.9326923,28.1341802 40.7480769,28.1341802 C41.35,28.1341802 41.9365385,28.0718162 42.5044872,27.9568327 C43.1538462,28.9832394 43.5096154,30.181147 43.5096154,31.4076381 Z" id="Shape"></path>
            <path d="M15.1839744,0.0704013325 L15.1846154,0.0600073404 C15.0814103,0.0554599688 14.9762821,0.0535110953 14.8724359,0.0528614708 C14.8608974,0.0528614708 14.85,0.0509125972 14.8384615,0.0509125972 C14.8333333,0.0509125972 14.8282051,0.0515622217 14.8237179,0.0515622217 C14.8121795,0.0515622217 14.8012821,0.0509125972 14.7897436,0.0509125972 C9.90320513,0.0509125972 5.92820513,4.07923418 5.92820513,9.0306722 C5.92820513,9.57051017 5.98397436,10.0960564 6.075,10.6099094 C3.0224359,11.7948245 0.817948718,14.62264 0.391025641,17.9090904 L0.383333333,17.9084408 C0.368589744,18.0240739 0.36025641,18.1403567 0.35,18.2566395 C0.344871795,18.3092591 0.338461538,18.3605794 0.33525641,18.4138486 C0.319871795,18.6334217 0.309615385,18.8529948 0.309615385,19.0719183 C0.309615385,19.3519064 0.326282051,19.6266976 0.350641026,19.9008391 C0.357051282,19.9671008 0.363461538,20.0314137 0.370512821,20.0970257 C0.432692308,20.6563524 0.544230769,21.2013874 0.703205128,21.7282329 C0.711538462,21.7535682 0.718589744,21.7789036 0.726923077,21.8042389 C1.32820513,23.74012 2.55641026,25.4116038 4.21794872,26.554943 C4.24358974,26.5724828 4.26987179,26.5906723 4.29615385,26.6082122 C4.50448718,26.7478815 4.71730769,26.8810545 4.93910256,27.0038335 C4.96153846,27.016826 4.98397436,27.0317674 5.00705128,27.0447599 C5.01025641,27.0460591 5.01346154,27.0486576 5.01666667,27.0499569 C4.29807692,28.3771397 3.91217949,29.878422 3.91217949,31.4069885 C3.91217949,34.7908825 5.74487179,37.835023 8.65320513,39.400618 C8.71217949,44.5255058 14.2134615,46.8596067 19.3269231,46.8596067 C19.3275641,46.8596067 19.3275641,46.8596067 19.3275641,46.8596067 C20.5442308,46.8596067 21.7064103,46.7199374 22.6871795,46.4535914 C23.2474359,46.3015792 23.6378205,45.786427 23.6378205,45.1985168 L23.6378205,10.2097407 C23.6384615,4.5541097 20.0269231,0.268536808 15.1839744,0.0704013325 Z M21.074359,44.1402785 C20.5320513,44.2201823 19.9423077,44.2624079 19.3275641,44.2624079 C19.3275641,44.2624079 19.3275641,44.2624079 19.3269231,44.2624079 C16.0666667,44.2624079 11.2160256,42.945619 11.2160256,39.3168165 C11.2160256,39.134272 11.2288462,38.9478298 11.2512821,38.7613875 C11.2615385,38.6801845 11.2628205,38.6002807 11.2583333,38.5216761 C11.6294872,36.4623664 13.3833333,34.9565368 15.4891026,34.9565368 C15.6076923,34.9565368 15.725,34.9617338 15.8423077,34.9701789 L16.0525641,32.3807756 C15.8653846,32.3658342 15.6775641,32.3580387 15.4891026,32.3580387 C12.625,32.3580387 10.1724359,34.1061783 9.14230769,36.6566041 C7.48846154,35.461295 6.47692308,33.5293117 6.47692308,31.4089373 C6.47692308,30.1804974 6.83076923,28.9819402 7.47628205,27.9542342 C8.05,28.0711666 8.64294872,28.1341802 9.25064103,28.1341802 C12.0666667,28.1341802 14.749359,26.7667206 16.4275641,24.4761446 L14.3692308,22.9274397 C13.1717949,24.5599461 11.2583333,25.5356821 9.25064103,25.5356821 C8.59487179,25.5356821 7.96089744,25.4343407 7.36538462,25.2465992 C7.35512821,25.2427015 7.34679487,25.2362052 7.33653846,25.2336067 C7.05576923,25.1433089 6.78717949,25.0315735 6.52628205,24.9074952 C6.45705128,24.8730651 6.38653846,24.8412335 6.31858974,24.8061538 C6.23717949,24.7632786 6.15833333,24.7171552 6.07948718,24.6716815 C5.97948718,24.6132153 5.88012821,24.5534499 5.78461538,24.4904363 C5.73205128,24.4560062 5.68012821,24.4209265 5.62884615,24.3851971 C5.48589744,24.2864542 5.3474359,24.1818646 5.21346154,24.0701292 C5.20705128,24.0649322 5.2,24.0597352 5.19358974,24.0545382 C4.25641026,23.2691422 3.54487179,22.2180498 3.17051282,21.0162444 C3.16153846,20.9883106 3.15512821,20.9603767 3.14679487,20.9324429 C3.10064103,20.7752337 3.05961538,20.6154261 3.02564103,20.4536696 C3.01282051,20.3984515 3.0025641,20.3432334 2.99166667,20.2880153 C2.96474359,20.1437987 2.94358974,19.9989324 2.92564103,19.8514677 C2.91858974,19.7943007 2.91089744,19.7371338 2.90512821,19.6799668 C2.88717949,19.4798824 2.875,19.2784988 2.875,19.0738671 C2.875,18.8322068 2.89423077,18.5892472 2.92115385,18.3475869 C3.18910256,15.9952966 4.73269231,13.9587237 6.89102564,13.0791321 C8.35448718,16.0017928 11.3416667,18.0130303 14.7910256,18.0130303 C15.5961538,18.0130303 16.3967949,17.9019445 17.1711538,17.6836707 L16.4826923,15.1800178 C15.9333333,15.3352781 15.3634615,15.4138826 14.7910256,15.4138826 C12.0628205,15.4138826 9.74166667,13.6436558 8.86858974,11.1796301 C8.86025641,11.1445504 8.85641026,11.1094706 8.84551282,11.0750405 C8.62564103,10.4182702 8.51474359,9.73161705 8.51474359,9.03197145 C8.51474359,5.75721429 10.9724359,3.05412671 14.125,2.69423473 C14.1628205,2.68968736 14.2,2.68449036 14.2378205,2.68059261 C14.3762821,2.66760012 14.5173077,2.66370238 14.6570513,2.65980463 C14.7583333,2.65785576 14.8589744,2.65460763 14.9615385,2.65720613 C18.974359,2.73386182 21.0762821,6.49193961 21.0762821,10.2097407 L21.0762821,44.1402785 L21.074359,44.1402785 Z" id="Shape"></path>
          </g>
        </g>
      </g>
    </g>
  </g>
</svg>
