<svg width="98px" height="26px" viewBox="0 0 98 26" version="1.1"
  xmlns="http://www.w3.org/2000/svg"
  xmlns:xlink="http://www.w3.org/1999/xlink">
  <desc>Biome</desc>
  <defs></defs>
  <g id="Symbols" stroke="none" stroke-width="1" fill="none" fill-rule="evenodd">
    <g id="Strructure" transform="translate(-21.000000, -669.000000)" fill="#8500FF">
      <path d="M35.66,682.555 C36.9100063,682.825001 37.8949964,683.392496 38.615,684.2575 C39.3350036,685.122504 39.695,686.269993 39.695,687.7 C39.695,689.140007 39.3200037,690.342495 38.57,691.3075 C37.8199963,692.272505 36.6100084,693.009997 34.94,693.52 C33.2699916,694.030003 31.0700136,694.285 28.34,694.285 C27.3999953,694.285 26.3175061,694.2425 25.0925,694.1575 C23.8674939,694.0725 22.7700048,693.960001 21.8,693.82 L21.8,672.34 C22.8900055,672.089999 24.1099933,671.890001 25.46,671.74 C26.8100067,671.589999 28.084994,671.515 29.285,671.515 C32.6750169,671.515 35.1574921,672.029995 36.7325,673.06 C38.3075079,674.090005 39.095,675.664989 39.095,677.785 C39.095,678.935006 38.7850031,679.937496 38.165,680.7925 C37.5449969,681.647504 36.7100053,682.234998 35.66,682.555 Z M30.05,675.655 C29.1699956,675.655 28.2900044,675.734999 27.41,675.895 L27.41,680.545 L30.17,680.545 C31.4500064,680.545 32.3599973,680.347502 32.9,679.9525 C33.4400027,679.557498 33.71,678.940004 33.71,678.1 C33.71,677.519997 33.5900012,677.052502 33.35,676.6975 C33.1099988,676.342498 32.7250027,676.080001 32.195,675.91 C31.6649974,675.739999 30.9500045,675.655 30.05,675.655 Z M29.915,690.13 C31.0450057,690.13 31.9374967,690.035001 32.5925,689.845 C33.2475033,689.654999 33.7124986,689.367502 33.9875,688.9825 C34.2625014,688.597498 34.4,688.090003 34.4,687.46 C34.4,686.529995 34.1100029,685.855002 33.53,685.435 C32.9499971,685.014998 31.9900067,684.805 30.65,684.805 L27.41,684.805 L27.41,690.025 C28.1600038,690.095 28.9949954,690.13 29.915,690.13 Z M41.6774999,694 L41.6774999,677.545 L47.3324999,677.545 L47.3324999,694 L41.6774999,694 Z M44.5124999,675.565 C43.3524941,675.565 42.4925027,675.322502 41.9324999,674.8375 C41.3724971,674.352498 41.0924999,673.645005 41.0924999,672.715 C41.0924999,671.794995 41.3724971,671.092502 41.9324999,670.6075 C42.4925027,670.122498 43.3524941,669.88 44.5124999,669.88 C45.6625057,669.88 46.5174971,670.122498 47.0774999,670.6075 C47.6375027,671.092502 47.9174999,671.794995 47.9174999,672.715 C47.9174999,673.645005 47.6375027,674.352498 47.0774999,674.8375 C46.5174971,675.322502 45.6625057,675.565 44.5124999,675.565 Z M57.9099998,694.315 C56.1799912,694.315 54.6875061,693.995003 53.4324998,693.355 C52.1774935,692.714997 51.2150032,691.760006 50.5449998,690.49 C49.8749965,689.219994 49.5399998,687.665009 49.5399998,685.825 C49.5399998,683.014986 50.2649926,680.887507 51.7149998,679.4425 C53.1650071,677.997493 55.2299864,677.275 57.9099998,677.275 C59.6800087,677.275 61.1899936,677.597497 62.4399998,678.2425 C63.6900061,678.887503 64.6424965,679.847494 65.2974998,681.1225 C65.9525031,682.397506 66.2799998,683.954991 66.2799998,685.795 C66.2799998,687.645009 65.9450032,689.204994 65.2749998,690.475 C64.6049965,691.745006 63.6425061,692.702497 62.3874998,693.3475 C61.1324935,693.992503 59.6400085,694.315 57.9099998,694.315 Z M57.9099998,690.1 C58.5200029,690.1 59.0224978,689.970001 59.4174998,689.71 C59.8125018,689.449999 60.1124988,689.007503 60.3174998,688.3825 C60.5225008,687.757497 60.6249998,686.905005 60.6249998,685.825 C60.6249998,684.734995 60.5225008,683.872503 60.3174998,683.2375 C60.1124988,682.602497 59.8125018,682.155001 59.4174998,681.895 C59.0224978,681.634999 58.5200029,681.505 57.9099998,681.505 C57.2999968,681.505 56.7975018,681.634999 56.4024998,681.895 C56.0074978,682.155001 55.7075008,682.599997 55.5024998,683.23 C55.2974988,683.860003 55.1949998,684.714995 55.1949998,685.795 C55.1949998,686.885005 55.2974988,687.744997 55.5024998,688.375 C55.7075008,689.005003 56.0074978,689.449999 56.4024998,689.71 C56.7975018,689.970001 57.2999968,690.1 57.9099998,690.1 Z M87.4024997,677.275 C89.1425084,677.275 90.5174947,677.814995 91.5274997,678.895 C92.5375048,679.975005 93.0424997,681.674988 93.0424997,683.995 L93.0424997,694 L87.4174997,694 L87.4174997,684.31 C87.4174997,683.509996 87.2600013,682.942502 86.9449997,682.6075 C86.6299982,682.272498 86.1875026,682.105 85.6174997,682.105 C85.2174977,682.105 84.8425015,682.172499 84.4924997,682.3075 C84.142498,682.442501 83.8325011,682.644999 83.5624997,682.915 C83.5824998,683.295002 83.5924997,683.589999 83.5924997,683.8 L83.5924997,694 L78.0724997,694 L78.0724997,684.31 C78.0724997,683.509996 77.9275012,682.942502 77.6374997,682.6075 C77.3474983,682.272498 76.9225025,682.105 76.3624997,682.105 C75.9224975,682.105 75.5025017,682.197499 75.1024997,682.3825 C74.7024977,682.567501 74.377501,682.829998 74.1274997,683.17 L74.1274997,694 L68.4874997,694 L68.4874997,677.545 L73.1224997,677.545 L73.4974997,679.15 L73.7524997,679.15 C74.9125055,677.899994 76.4324903,677.275 78.3124997,677.275 C79.2125042,677.275 80.0224961,677.444998 80.7424997,677.785 C81.4625033,678.125002 82.0524974,678.644997 82.5124997,679.345 C83.1825031,678.644997 83.9374955,678.125002 84.7774997,677.785 C85.6175039,677.444998 86.4924952,677.275 87.4024997,677.275 Z M110.55,687.37 L100.755,687.37 C100.815,688.060003 100.992498,688.602498 101.2875,688.9975 C101.582501,689.392502 102.057496,689.677499 102.7125,689.8525 C103.367503,690.027501 104.274994,690.115 105.435,690.115 C106.635006,690.115 108.024992,689.955002 109.605,689.635 L109.605,693.805 C107.954991,694.145002 106.295008,694.315 104.625,694.315 C102.414989,694.315 100.615007,694.017503 99.2249996,693.4225 C97.8349927,692.827497 96.807503,691.902506 96.1424996,690.6475 C95.4774963,689.392494 95.1449996,687.76501 95.1449996,685.765 C95.1449996,683.984991 95.4524966,682.460006 96.0674996,681.19 C96.6825027,679.919994 97.5849937,678.950003 98.7749996,678.28 C99.9650056,677.609997 101.414991,677.275 103.125,677.275 C105.555012,677.275 107.399993,678.022493 108.66,679.5175 C109.920006,681.012507 110.55,683.154986 110.55,685.945 L110.55,687.37 Z M103.065,680.77 C102.284996,680.77 101.707502,681.029997 101.3325,681.55 C100.957498,682.070003 100.76,682.954994 100.74,684.205 L105.33,684.205 C105.31,682.954994 105.117501,682.070003 104.7525,681.55 C104.387498,681.029997 103.825003,680.77 103.065,680.77 Z M115.4125,694.285 C114.322494,694.285 113.452503,693.982503 112.8025,693.3775 C112.152496,692.772497 111.8275,691.955005 111.8275,690.925 C111.8275,689.894995 112.147496,689.080003 112.7875,688.48 C113.427503,687.879997 114.302494,687.58 115.4125,687.58 C116.152503,687.58 116.792497,687.717499 117.3325,687.9925 C117.872502,688.267501 118.287498,688.657497 118.5775,689.1625 C118.867501,689.667503 119.0125,690.254997 119.0125,690.925 C119.0125,691.595003 118.865001,692.182497 118.57,692.6875 C118.274998,693.192503 117.855002,693.584999 117.31,693.865 C116.764997,694.145001 116.132503,694.285 115.4125,694.285 Z" id="Biome."></path>
    </g>
  </g>
</svg>
