<svg width="46px" height="46px" viewBox="0 0 46 46" version="1.1" 
  xmlns="http://www.w3.org/2000/svg" 
  xmlns:xlink="http://www.w3.org/1999/xlink">
  <!-- Generator: Sketch 48.1 (47250) - http://www.bohemiancoding.com/sketch -->
  <desc>Created with Sketch.</desc>
  <defs></defs>
  <g id="Symbols" stroke="none" stroke-width="1" fill="none" fill-rule="evenodd">
    <g id="Action-bar-hover" transform="translate(-911.000000, -19.000000)" fill="#234240" fill-rule="nonzero">
      <g id="Group-3" transform="translate(315.000000, 19.000000)">
        <g id="noun_1584139_cc" transform="translate(596.000000, 0.000000)">
          <path d="M0.842773203,29.776106 C1.23842964,30.0280115 1.71799215,30.1123622 2.1758724,30.010586 C2.63375264,29.9088098 3.03240786,29.6292516 3.28406359,29.2334635 L14.1010483,12.2365585 L17.1062573,17.390778 L0.312442201,43.2290432 C-0.052545215,43.7583067 -0.101353879,44.4439851 0.18498488,45.0196012 C0.471323638,45.5952172 1.04765327,45.9699944 1.68999292,45.9982817 C2.33233257,46.026569 2.93938319,45.7039056 3.27522474,45.1556891 L19.1038374,20.8092487 L25.0134925,30.9356286 C25.3238395,31.4733129 25.8935445,31.8087892 26.5143293,31.8194111 L26.5408458,31.8194111 C27.150356,31.8194126 27.7168744,31.5054588 28.0399148,30.9886556 L31.9749708,24.6943566 L35.6201126,30.9356286 C35.9534916,31.4628228 36.5242121,31.7930626 37.1474659,31.8194111 C37.7777497,31.818134 38.3596779,31.481409 38.6748192,30.9356286 L45.7458992,18.5626736 C46.0772836,18.013414 46.08505,17.3277501 45.7661917,16.771127 C45.4473334,16.2145039 44.8519032,15.8742975 44.2104135,15.8822139 C43.5689237,15.8901303 42.9820723,16.2449269 42.6770505,16.8092491 L37.1315559,26.5167161 L34.0927593,21.3059345 L45.7176149,2.70761554 C46.2350605,1.87784623 45.981794,0.785761413 45.1519285,0.268375839 C44.3220629,-0.249009734 43.2298514,0.00422732389 42.7124059,0.83399664 L32.0792693,17.8556476 L26.3004291,7.9572836 C25.9930016,7.42437676 25.4305689,7.0896342 24.8155023,7.0735011 C24.200542,7.05100064 23.6200592,7.35736845 23.2916845,7.87774318 L19.2647045,14.0642207 L15.693809,7.9572836 C15.3850801,7.42226087 14.8194209,7.08719357 14.2018112,7.0735011 C13.5900082,7.08218672 13.0205073,7.38733526 12.6744579,7.8918837 L0.300067811,27.3350987 C0.0481330879,27.7307093 -0.0362273606,28.2102162 0.065560645,28.6680433 C0.167348651,29.1258705 0.446939254,29.5244795 0.842773203,29.776106 Z M24.6917584,12.210045 L29.9614808,21.2423022 L26.5921112,26.6333754 L21.258749,17.4897617 L24.6917584,12.210045 Z" id="Shape"></path>
        </g>
      </g>
    </g>
  </g>
</svg>