<svg width="23px" height="23px" viewBox="0 0 23 23" version="1.1" 
  xmlns="http://www.w3.org/2000/svg" 
  xmlns:xlink="http://www.w3.org/1999/xlink">
  <!-- Generator: Sketch 48.1 (47250) - http://www.bohemiancoding.com/sketch -->
  <desc>Created with Sketch.</desc>
  <defs></defs>
  <g id="Symbols" stroke="none" stroke-width="1" fill="none" fill-rule="evenodd">
    <g id="Menu" transform="translate(-22.000000, -264.000000)" fill="#000000" fill-rule="nonzero">
      <g id="noun_1084268_cc" transform="translate(22.000000, 264.000000)">
        <path d="M0.287498844,22.425 C0.128799482,22.425 0,22.5538 0,22.7125 C0,22.8712 0.128799482,23 0.287498844,23 L22.7124087,23 C22.8711081,23 22.9999076,22.8712 22.9999076,22.7125 C22.9999076,22.5538 22.8711081,22.425 22.7124087,22.425 L17.7470162,22.425 L17.7470162,8.761275 L22.5031096,13.8100625 C22.6120716,13.9256375 22.7943459,13.9308125 22.9096329,13.8221375 C23.0252075,13.713175 23.0306699,13.5311875 22.9217079,13.4156125 L17.7470162,7.9226375 L17.7470162,4.8866375 L22.5031096,9.935425 C22.6120716,10.0512875 22.7943459,10.056175 22.9096329,9.9475 C23.0252075,9.8385375 23.0306699,9.65655 22.9217079,9.540975 L17.7470162,4.048 L17.7470162,1.012 L22.5031096,6.0607875 C22.6120716,6.1763625 22.7943459,6.1815375 22.9096329,6.0728625 C23.0252075,5.9639 23.0306699,5.7819125 22.9217079,5.6663375 L17.6688165,0.090275 C17.667954,0.089125 17.6665165,0.0888375 17.6653665,0.087975 C17.6130417,0.0342125 17.540592,0 17.4595173,0 C17.3784426,0 17.3059929,0.0342125 17.2536682,0.087975 C17.2528057,0.0888375 17.2513682,0.089125 17.2502182,0.090275 L11.9973268,5.666625 C11.8886522,5.7822 11.8938272,5.9641875 12.0094017,6.07315 C12.064889,6.125475 12.1356137,6.15135 12.2066259,6.15135 C12.2831006,6.15135 12.3592878,6.1211625 12.4159251,6.061075 L17.1720185,1.012 L17.1720185,4.048 L11.9973268,9.5412625 C11.8886522,9.6568375 11.8938272,9.838825 12.0094017,9.9477875 C12.064889,10.0001125 12.1356137,10.0259875 12.2066259,10.0259875 C12.2831006,10.0259875 12.3592878,9.9958 12.4159251,9.9357125 L17.171731,4.886925 L17.171731,7.922925 L11.9973268,13.4159 C11.8886522,13.531475 11.8938272,13.7134625 12.0094017,13.822425 C12.064889,13.87475 12.1356137,13.900625 12.2066259,13.900625 C12.2831006,13.900625 12.3592878,13.8704375 12.4159251,13.81035 L17.171731,8.7615625 L17.171731,22.425 L5.82788908,22.425 L5.82788908,8.761275 L10.583695,13.8100625 C10.6403322,13.87015 10.7165194,13.9003375 10.7929941,13.9003375 C10.8637188,13.9003375 10.934731,13.8744625 10.9902183,13.8221375 C11.1057929,13.713175 11.1112553,13.5311875 11.0022933,13.4156125 L5.82788908,7.9226375 L5.82788908,4.8866375 L10.583695,9.935425 C10.6403322,9.9955125 10.7165194,10.0257 10.7929941,10.0257 C10.8637188,10.0257 10.934731,9.999825 10.9902183,9.9475 C11.1057929,9.8385375 11.1112553,9.65655 11.0022933,9.540975 L5.82788908,4.048 L5.82788908,1.012 L10.583695,6.0607875 C10.6403322,6.120875 10.7165194,6.1510625 10.7929941,6.1510625 C10.8637188,6.1510625 10.934731,6.1251875 10.9902183,6.0728625 C11.1057929,5.9639 11.1112553,5.7819125 11.0022933,5.6663375 L5.74968939,0.090275 C5.74882689,0.089125 5.7471019,0.0888375 5.7462394,0.0876875 C5.72467699,0.0652625 5.6982271,0.048875 5.67033971,0.0345 C5.66430223,0.0313375 5.65970225,0.025875 5.65337728,0.023 C5.61858992,0.0083375 5.58064007,0 5.54039023,0 C5.50014039,0 5.46219055,0.0083375 5.42740319,0.0232875 C5.42107821,0.025875 5.41647823,0.031625 5.41044075,0.0347875 C5.38255337,0.0491625 5.35610347,0.06555 5.33454106,0.087975 C5.33339106,0.089125 5.33195357,0.0894125 5.33109107,0.0905625 L0.0781996857,5.666625 C-0.0304748775,5.7822 -0.0252998983,5.9641875 0.0902746372,6.07315 C0.205561674,6.1815375 0.387548442,6.17665 0.496798003,6.061075 L5.25289139,1.012 L5.25289139,4.048 L0.0781996857,9.5412625 C-0.0304748775,9.6568375 -0.0252998983,9.838825 0.0902746372,9.9477875 C0.205561674,10.0564625 0.387548442,10.0512875 0.496798003,9.9357125 L5.25289139,4.886925 L5.25289139,7.922925 L0.0781996857,13.4159 C-0.0304748775,13.531475 -0.0252998983,13.7134625 0.0902746372,13.822425 C0.205561674,13.9308125 0.387548442,13.925925 0.496798003,13.81035 L5.25289139,8.7615625 L5.25289139,22.425 L0.287498844,22.425 Z" id="Shape"></path>
      </g>
    </g>
  </g>
</svg>