<svg width="29px" height="70px" viewBox="0 0 29 70" version="1.1" 
  xmlns="http://www.w3.org/2000/svg" 
  xmlns:xlink="http://www.w3.org/1999/xlink">
  <!-- Generator: Sketch 48.1 (47250) - http://www.bohemiancoding.com/sketch -->
  <desc>Created with Sketch.</desc>
  <defs></defs>
  <g id="Symbols" stroke="none" stroke-width="1" fill="none" fill-rule="evenodd">
    <polygon id="Page-1" fill="#144746" points="10.399 0.0004 0.775 9.3784 4.919 28.9214 0 26.5344 0 39.4334 3.937 42.4644 8.289 40.0604 4.787 54.5054 4.919 63.4764 6.184 65.4414 9.666 68.8424 13.413 69.6774 17.477 68.4774 19.537 65.4524 19.537 61.6294 15.574 59.2164 12.846 61.1514 12.846 63.2344 15.265 64.6754 16.19 63.9674 16.19 62.2584 15.265 63.2344 14.076 62.2584 15.574 61.1514 17.477 62.6634 16.677 65.4524 13.413 66.5494 9.666 63.4764 10.667 56.7544 12.899 50.3834 21.824 28.9214 14.564 11.8324 25.399 14.9564 28.153 11.8324"></polygon>
  </g>
</svg>