<svg width="63px" height="62px" viewBox="0 0 63 62" version="1.1" 
  xmlns="http://www.w3.org/2000/svg" 
  xmlns:xlink="http://www.w3.org/1999/xlink">
  <!-- Generator: Sketch 48.1 (47250) - http://www.bohemiancoding.com/sketch -->
  <desc>Created with Sketch.</desc>
  <defs></defs>
  <g id="Page-1" stroke="none" stroke-width="1" fill="none" fill-rule="evenodd">
    <g fill="#000000" id="Fill-1">
      <path d="M44.6191,29.2501 C44.7991,30.0731 44.9001,30.9251 44.9001,31.8001 C44.9001,38.4001 39.5001,43.8001 32.9001,43.8001 C26.3001,43.8001 20.9001,38.4001 20.9001,31.8001 C20.9001,30.9251 21.0011,30.0731 21.1811,29.2501 C22.3591,23.8651 27.1751,19.8001 32.9001,19.8001 C38.6251,19.8001 43.4411,23.8651 44.6191,29.2501 Z M53.6351,43.9691 C54.1381,43.6111 54.7451,43.4001 55.4001,43.4001 C56.0471,43.4001 56.6491,43.6051 57.1491,43.9501 C57.9611,44.5111 58.5001,45.4471 58.5001,46.5001 C58.5001,48.2001 57.1001,49.6001 55.4001,49.6001 C53.7001,49.6001 52.3001,48.3001 52.3001,46.6001 C52.3001,45.4931 52.8321,44.5421 53.6351,43.9691 Z M14.2001,59.7001 C10.8001,59.7001 8.0001,56.9001 8.0001,53.5001 C8.0001,52.5921 8.2041,51.7301 8.5621,50.9501 C9.5431,48.8071 11.7071,47.3001 14.2001,47.3001 C16.6921,47.3001 18.8571,48.8071 19.8381,50.9501 C20.1951,51.7301 20.4001,52.5921 20.4001,53.5001 C20.4001,56.9001 17.6001,59.7001 14.2001,59.7001 Z M7.1001,21.3001 C4.3001,21.3001 2.0001,19.0001 2.0001,16.2001 C2.0001,15.2691 2.2721,14.4041 2.7151,13.6501 C3.6031,12.1361 5.2311,11.1001 7.1001,11.1001 C8.9691,11.1001 10.5971,12.1361 11.4851,13.6501 C11.9281,14.4041 12.2001,15.2691 12.2001,16.2001 C12.2001,19.0001 9.9001,21.3001 7.1001,21.3001 Z M29.8001,7.4001 C28.3001,7.4001 27.1001,6.2001 27.1001,4.7001 C27.1001,3.5021 27.8701,2.5071 28.9431,2.1501 C29.2131,2.0601 29.4981,2.0001 29.8001,2.0001 C30.1021,2.0001 30.3861,2.0601 30.6571,2.1501 C31.7291,2.5071 32.5001,3.5021 32.5001,4.7001 C32.5001,6.2001 31.3001,7.4001 29.8001,7.4001 Z M56.3481,5.8501 C56.7531,5.6341 57.2091,5.5001 57.7001,5.5001 C58.1911,5.5001 58.6461,5.6341 59.0521,5.8501 C59.9681,6.3381 60.6001,7.2911 60.6001,8.4001 C60.6001,10.0001 59.3001,11.3001 57.7001,11.3001 C56.1001,11.3001 54.8001,10.0001 54.8001,8.4001 C54.8001,7.2911 55.4321,6.3381 56.3481,5.8501 Z M55.3001,12.7001 C56.0001,13.1001 56.8001,13.3001 57.7001,13.3001 C60.4001,13.3001 62.6001,11.1001 62.6001,8.4001 C62.6001,6.7001 61.7251,5.2001 60.4051,4.3211 C59.6291,3.8041 58.7001,3.5001 57.7001,3.5001 C56.7001,3.5001 55.7711,3.8041 54.9951,4.3211 C53.6741,5.2001 52.8001,6.7001 52.8001,8.4001 C52.8001,9.5001 53.2001,10.5001 53.8001,11.4001 L43.7861,21.6951 L43.1001,22.4001 C40.5001,19.6001 36.9001,17.9001 32.8001,17.9001 L32.0001,17.9001 L31.7501,14.7581 L31.3001,9.1001 C33.1001,8.5001 34.5001,6.7001 34.5001,4.7001 C34.5001,3.0061 33.6001,1.5361 32.2601,0.7091 C31.5431,0.2671 30.7051,0.0001 29.8001,0.0001 C28.8941,0.0001 28.0571,0.2671 27.3401,0.7091 C25.9991,1.5361 25.1001,3.0061 25.1001,4.7001 C25.1001,7.2001 27.0001,9.2001 29.4001,9.4001 L29.8591,15.1081 L30.1001,18.1001 C26.6001,18.8001 23.6001,20.8001 21.6001,23.6001 L21.3611,23.4551 L13.7001,18.8001 C14.0001,18.0001 14.2001,17.2001 14.2001,16.3001 C14.2001,14.3821 13.4241,12.6371 12.1741,11.3551 C10.8821,10.0291 9.0821,9.2001 7.1001,9.2001 C5.1171,9.2001 3.3181,10.0291 2.0261,11.3551 C0.7761,12.6371 0.0001,14.3821 0.0001,16.3001 C0.0001,20.2001 3.2001,23.4001 7.1001,23.4001 C9.4001,23.4001 11.4001,22.3001 12.7001,20.6001 L20.5001,25.3001 C19.4001,27.3001 18.8001,29.5001 18.8001,31.9001 C18.8001,35.6001 20.2001,38.9001 22.5001,41.4001 L19.6461,45.4551 L18.7001,46.8001 C17.4001,45.9001 15.9001,45.4001 14.2001,45.4001 C11.7351,45.4001 9.5151,46.5141 8.0071,48.2581 C6.7621,49.6981 6.0001,51.5641 6.0001,53.6001 C6.0001,58.1001 9.7001,61.8001 14.2001,61.8001 C18.7001,61.8001 22.4001,58.1001 22.4001,53.6001 C22.4001,51.5511 21.6351,49.6961 20.3901,48.2131 C20.3591,48.1761 20.3311,48.1371 20.3001,48.1001 L20.3791,47.9901 L24.1001,42.8001 C26.5001,44.8001 29.6001,45.9001 32.9001,45.9001 C37.4001,45.9001 41.4001,43.8001 44.0001,40.5001 L50.9001,44.5001 C50.5001,45.0001 50.3001,45.8001 50.3001,46.6001 C50.3001,49.4001 52.6001,51.7001 55.4001,51.7001 C58.2001,51.7001 60.5001,49.4001 60.5001,46.6001 C60.5001,44.8801 59.6271,43.3541 58.3081,42.4291 C57.4811,41.8481 56.4801,41.5001 55.4001,41.5001 C54.3101,41.5001 53.3021,41.8661 52.4701,42.4511 C52.3101,42.5631 52.1451,42.6711 52.0001,42.8001 L45.0001,38.8001 C46.2001,36.8001 46.8001,34.4001 46.8001,31.9001 C46.8001,29.2581 46.0461,26.7051 44.7041,24.6071 C44.5731,24.4021 44.4421,24.1961 44.3001,24.0001 L44.5211,23.7721 L55.3001,12.7001 Z"></path>
    </g>
  </g>
</svg>