<svg width="34px" height="34px" viewBox="0 0 34 34" version="1.1"
  xmlns="http://www.w3.org/2000/svg"
  xmlns:xlink="http://www.w3.org/1999/xlink">
  <!-- Generator: Sketch 48.1 (47250) - http://www.bohemiancoding.com/sketch -->
  <desc>Created with Sketch.</desc>
  <defs></defs>
  <g id="Ecosystem--" stroke="none" stroke-width="1" fill="none" fill-rule="evenodd">
    <g id="Ecosytemdbsmallclose" transform="translate(-878.000000, -157.000000)" fill="#3B3269" fill-rule="nonzero">
      <g id="mini-modal" transform="translate(804.000000, 102.000000)">
        <g id="Group-2" transform="translate(34.000000, 55.000000)">
          <g id="noun_72152_cc" transform="translate(40.000000, 0.000000)">
            <path d="M33.6614167,30.2401667 L25.2988333,21.9880833 L29.6706667,18.19425 C29.8622708,18.0299167 29.9529375,17.7773958 29.9143333,17.5284167 C29.87325,17.2819167 29.7075,17.0708333 29.4769375,16.9716667 L9.00716667,8.34983333 C8.73233333,8.23366667 8.41641667,8.29741667 8.20816667,8.50566667 C7.9985,8.71816667 7.939,9.03408333 8.058,9.3075 L16.8073333,29.5470625 C16.9050833,29.7740833 17.1119167,29.9352292 17.357,29.9766667 C17.5964167,30.0173958 17.8489375,29.9323958 18.0139792,29.7496458 L21.7883333,25.5973958 L30.0875208,33.7889167 C30.23025,33.9305833 30.4119375,33.99575 30.5975208,33.99575 C30.78275,33.99575 30.9683333,33.9263333 31.1085833,33.7889167 L33.6585833,31.2743333 C33.7988333,31.1351458 33.8753333,30.9499167 33.8753333,30.7540625 C33.8795833,30.5631667 33.80025,30.3761667 33.6614167,30.2401667 Z" id="Shape"></path>
            <path d="M9.03975,14.92175 C5.729,14.92175 3.03591667,12.2300833 3.03591667,8.91791667 C3.03591667,5.60858333 5.729,2.9155 9.03975,2.9155 C12.3505,2.9155 15.045,5.60858333 15.045,8.91791667 C15.045,9.72258333 15.6966667,10.3756667 16.5013333,10.3756667 C17.3056458,10.3756667 17.9576667,9.72258333 17.9576667,8.91791667 C17.9576667,4.00066667 13.9555833,0.00283333333 9.03975,0.00283333333 C4.1225,0.00283333333 0.12325,4.00066667 0.12325,8.91791667 C0.12325,13.8365833 4.12391667,17.8354792 9.03975,17.8354792 C9.84441667,17.8354792 10.4960833,17.1823958 10.4960833,16.3795 C10.4960833,15.5748333 9.84441667,14.92175 9.03975,14.92175 Z" id="Shape"></path>
          </g>
        </g>
      </g>
    </g>
  </g>
</svg>
