
<svg width="24px" height="24px" viewBox="0 0 24 24" version="1.1" xmlns="http://www.w3.org/2000/svg" xmlns:xlink="http://www.w3.org/1999/xlink">
    <!-- Generator: Sketch 48.1 (47250) - http://www.bohemiancoding.com/sketch -->
    <desc>Created with Sketch.</desc>
    <defs></defs>
    <g id="Page-1" stroke="none" stroke-width="1" fill="none" fill-rule="evenodd">
        <g id="clock" fill="#000000" fill-rule="nonzero">
            <g id="Group" transform="translate(0.000000, 0.173951)">
                <path d="M12,0.0987763636 C5.37588949,0.0987763636 0,5.35248 0,11.8260491 C0,18.2996127 5.37588949,23.5533218 12,23.5533218 C18.6241105,23.5533218 24,18.2996127 24,11.8260491 C24,5.35248 18.6241105,0.0987763636 12,0.0987763636 Z M12,0.644230909 C18.3224707,0.644230909 23.4418605,5.64726545 23.4418605,11.8260491 C23.4418605,18.0048218 18.3224707,23.0078673 12,23.0078673 C5.6775293,23.0078673 0.558139535,18.0048218 0.558139535,11.8260491 C0.558139535,5.64726545 5.6775293,0.644230909 12,0.644230909 Z M11.9651163,4.18116273 C11.821363,4.198766 11.7152936,4.32093524 11.7209302,4.46241273 L11.7209302,11.8260491 C11.7214921,11.8960787 11.7495952,11.963214 11.7994186,12.0135491 L17.127907,17.2209355 C17.2362768,17.3291958 17.4139313,17.3311037 17.5247093,17.2251968 C17.6354873,17.1192899 17.6374396,16.9456731 17.5290698,16.8374127 L12.2790698,11.7067309 L12.2790698,4.46241273 C12.2822752,4.38230101 12.2492526,4.30486824 12.1887784,4.25069341 C12.1283042,4.19651859 12.0465035,4.17108891 11.9651163,4.18116273 Z" id="Shape"></path>
            </g>
        </g>
    </g>
</svg>