
<svg width="70px" height="69px" viewBox="0 0 70 69" version="1.1" xmlns="http://www.w3.org/2000/svg" xmlns:xlink="http://www.w3.org/1999/xlink">
    <!-- Generator: Sketch 48.1 (47250) - http://www.bohemiancoding.com/sketch -->
    <desc>Created with Sketch.</desc>
    <defs></defs>
    <g id="Empty-content" stroke="none" stroke-width="1" fill="none" fill-rule="evenodd">
        <g id="Datasource" transform="translate(-684.000000, -264.000000)" fill="#686A6D" fill-rule="nonzero">
            <g id="noun_tap_2218391" transform="translate(684.000000, 264.000000)">
                <g id="Group">
                    <path d="M33.3520213,17.7539362 L26.7593617,17.7539362 C26.142766,17.7539362 25.6423404,17.2542553 25.6423404,16.6369149 L25.6423404,9.31223404 C25.6423404,8.69489362 26.142766,8.19521277 26.7593617,8.19521277 L33.3520213,8.19521277 C33.968617,8.19521277 34.4690426,8.69489362 34.4690426,9.31223404 L34.4690426,16.6369149 C34.4690426,17.2535106 33.968617,17.7539362 33.3520213,17.7539362 Z M27.8771277,15.5198936 L32.2357447,15.5198936 L32.2357447,10.4292553 L27.8771277,10.4292553 L27.8771277,15.5198936 Z" id="Shape"></path>
                    <path d="M68.5106383,50.7157447 L50.9317021,50.7157447 C50.3151064,50.7157447 49.8146809,50.2160638 49.8146809,49.5987234 L49.8146809,43.1892553 C49.8146809,42.5719149 50.3151064,42.072234 50.9317021,42.072234 L68.5106383,42.072234 C69.127234,42.072234 69.6276596,42.5719149 69.6276596,43.1892553 L69.6276596,49.5987234 C69.6276596,50.2153191 69.127234,50.7157447 68.5106383,50.7157447 Z M52.0487234,48.4817021 L67.393617,48.4817021 L67.393617,44.3062766 L52.0487234,44.3062766 L52.0487234,48.4817021 Z" id="Shape"></path>
                    <path d="M30.4224468,45.9542553 C22.397766,45.9542553 15.9882979,42.3358511 15.1214894,37.5304255 L1.4893617,37.5304255 C0.872765957,37.5304255 0.372340426,37.0307447 0.372340426,36.4134043 L0.372340426,22.4968085 C0.372340426,21.8794681 0.872765957,21.3797872 1.4893617,21.3797872 L20.8815957,21.3797872 L20.8815957,17.0032979 C20.8815957,16.3859574 21.3820213,15.8862766 21.998617,15.8862766 L38.8455319,15.8862766 C39.4621277,15.8862766 39.9625532,16.3859574 39.9625532,17.0032979 L39.9625532,21.3797872 L51.0761702,21.3797872 C60.2960638,21.3797872 67.7964894,28.8809574 67.7964894,38.1008511 L67.7964894,43.1892553 C67.7964894,43.8065957 67.2960638,44.3062766 66.6794681,44.3062766 L52.7628723,44.3062766 C52.1462766,44.3062766 51.6458511,43.8065957 51.6458511,43.1892553 L51.6458511,38.1008511 C51.6458511,37.7865957 51.3904255,37.5304255 51.0761702,37.5304255 L45.7234043,37.5304255 C44.8558511,42.3358511 38.4471277,45.9542553 30.4224468,45.9542553 Z M2.60638298,35.296383 L16.1387234,35.296383 C16.7553191,35.296383 17.2557447,35.7960638 17.2557447,36.4134043 C17.2557447,40.373617 23.2854255,43.7202128 30.4224468,43.7202128 C37.5594681,43.7202128 43.5891489,40.3743617 43.5891489,36.4134043 C43.5891489,35.7960638 44.0895745,35.296383 44.7061702,35.296383 L51.0769149,35.296383 C52.6228723,35.296383 53.8806383,36.5541489 53.8806383,38.1008511 L53.8806383,42.072234 L65.5631915,42.072234 L65.5631915,38.1008511 C65.5631915,30.1126596 59.0643617,23.6138298 51.0769149,23.6138298 L38.8455319,23.6138298 C38.2289362,23.6138298 37.7285106,23.1141489 37.7285106,22.4968085 L37.7285106,18.1203191 L23.1156383,18.1203191 L23.1156383,22.4968085 C23.1156383,23.1141489 22.6152128,23.6138298 21.998617,23.6138298 L2.60638298,23.6138298 L2.60638298,35.296383 Z" id="Shape"></path>
                    <path d="M50.9317021,10.4292553 L9.18042553,10.4292553 C8.56382979,10.4292553 8.06340426,9.92957447 8.06340426,9.31223404 L8.06340426,1.25478723 C8.06340426,0.637446809 8.56382979,0.137765957 9.18042553,0.137765957 L50.9309574,0.137765957 C51.5475532,0.137765957 52.0479787,0.637446809 52.0479787,1.25478723 L52.0479787,9.31223404 C52.0487234,9.92882979 51.5482979,10.4292553 50.9317021,10.4292553 Z M10.2974468,8.19521277 L49.8139362,8.19521277 L49.8139362,2.37180851 L10.2974468,2.37180851 L10.2974468,8.19521277 Z" id="Shape"></path>
                    <path d="M60.0875532,68.3728723 C58.3211702,68.3728723 56.6612766,67.6847872 55.4131915,66.4359574 C54.1643617,65.1878723 53.4762766,63.527234 53.4762766,61.7615957 C53.4762766,59.9959574 54.1643617,58.3353191 55.4131915,57.087234 L59.2974468,53.2029787 C59.7159574,52.7844681 60.4584043,52.7844681 60.8769149,53.2029787 L64.7619149,57.087234 C67.3392553,59.6645745 67.3392553,63.858617 64.7619149,66.4359574 C63.5130851,67.6847872 61.8539362,68.3728723 60.0875532,68.3728723 Z M60.0868085,55.5725532 L56.9926596,58.6674468 C56.1660638,59.4940426 55.7103191,60.5931915 55.7103191,61.7623404 C55.7103191,62.9314894 56.1653191,64.0298936 56.9926596,64.8564894 C57.8192553,65.6838298 58.9184043,66.1388298 60.0875532,66.1388298 C61.2559574,66.1388298 62.3551064,65.6838298 63.1817021,64.8564894 C64.0082979,64.0291489 64.4640426,62.9307447 64.4640426,61.7615957 C64.4640426,60.5924468 64.0090426,59.4940426 63.1817021,58.6667021 L60.0868085,55.5725532 Z" id="Shape"></path>
                </g>
            </g>
        </g>
    </g>
</svg>