
<svg width="128px" height="121px" viewBox="0 0 128 121" version="1.1" xmlns="http://www.w3.org/2000/svg" xmlns:xlink="http://www.w3.org/1999/xlink">
    <!-- Generator: Sketch 48.1 (47250) - http://www.bohemiancoding.com/sketch -->
    <desc>Created with Sketch.</desc>
    <defs></defs>
    <g id="Page-1" stroke="none" stroke-width="1" fill="none" fill-rule="evenodd">
        <g id="Eco-0-Copy-4" transform="translate(-396.000000, -331.000000)" fill="#5C5C5C">
            <g id="Group-10" transform="translate(357.000000, 256.000000)">
                <g id="Group-9" transform="translate(0.000000, 30.000000)">
                    <g id="noun_Fuel_780251" transform="translate(102.091304, 105.282609) scale(-1, 1) translate(-102.091304, -105.282609) translate(37.591304, 44.782609)">
                        <g id="Group">
                            <path d="M117.471239,56.2768227 L113.678817,58.3843206 L119.841501,70.4695562 C121.965221,74.6493146 123.065043,79.3070534 123.065061,84.0364472 L123.065061,120.884783 L127.331536,120.884783 L127.331536,84.0364472 C127.331515,78.5797138 126.052687,73.2175648 123.60232,68.3949354 L117.471239,56.2768227 Z" id="Shape"></path>
                            <path d="M78.3083079,9.4509181 C74.4690226,9.4509181 70.6380122,10.9565146 67.7211313,13.9951893 L51.066078,31.349001 C46.9042293,35.6855571 46.9041549,42.7858017 51.066078,47.1223579 L66.2041625,62.8957148 C66.6059007,63.3160728 67.1517906,63.5523762 67.7211313,63.5523762 C68.290472,63.5523762 68.8363619,63.3160728 69.2381001,62.8957148 L79.8252767,51.864228 C81.5151281,50.10354 84.2033019,50.10354 85.8931517,51.864228 L104.065174,70.7657861 C104.898249,71.6195177 106.234433,71.6195177 107.067508,70.7657861 L117.686289,59.734468 C121.84808,55.3979118 121.848213,48.2976673 117.686289,43.9611111 L88.9270892,13.9951893 C86.0101339,10.9556716 82.1475948,9.4507495 78.3083079,9.4509181 Z M70.7550688,17.156436 C74.9528313,12.7824507 81.6952582,12.7822821 85.8931517,17.156436 L114.652352,47.1223579 C117.178298,49.7543698 117.178243,53.9412093 114.652352,56.5732212 L105.550539,66.0569615 L88.9270892,48.7029813 C85.6011753,45.2375804 80.1488578,45.2375804 76.8229439,48.7029813 L67.7211313,58.1538446 L54.1000156,43.9611111 C51.5740692,41.3290992 51.5741825,37.142091 54.1000156,34.5102477 L70.7550688,17.156436 Z" id="Shape"></path>
                            <path d="M69.2381001,59.734468 L66.2041625,62.8957148 L69.2381001,66.0569615 C77.5797794,74.7486199 91.1725881,74.7486199 99.5142675,66.0569615 L101.031236,64.4771812 L97.9972987,61.3159344 L96.4803299,62.8957148 C89.7747147,69.8826602 78.9776528,69.8826602 72.2720376,62.8957148 L69.2381001,59.734468 Z" id="Shape"></path>
                            <path d="M82.4799736,46.6821437 C81.9093073,46.6885375 81.3647122,46.9320822 80.9671357,47.3586897 C80.5695593,47.7852973 80.3519145,48.3596512 80.3625377,48.954195 L80.3625377,60.1173582 C80.3625377,61.3540433 81.3246952,62.3565747 82.5115767,62.3565747 C83.6984582,62.3565747 84.6606158,61.3540433 84.6606158,60.1173582 L84.6606158,48.954195 C84.6715127,48.3481836 84.4452651,47.7636435 84.0339267,47.3350625 C83.6225883,46.9064814 83.0615793,46.6707644 82.4799736,46.6821437 Z" id="Shape"></path>
                            <path d="M110.101446,65.2008116 L106.309024,67.3083095 L110.22786,74.8821509 C112.411228,79.107094 113.546224,83.8152442 113.546229,88.6137639 L113.546229,120.884783 L117.844307,120.884783 L117.844307,88.6137639 C117.8443,83.0771142 116.507869,77.6493799 113.988679,72.7746531 L110.101446,65.2008116 Z" id="Shape"></path>
                            <path d="M29.0068232,0.922127203 L12.6045996,3.65529901 C11.9988434,3.75894523 11.4649334,4.12855262 11.1384851,4.67023924 C10.8120369,5.21192586 10.7244636,5.8735666 10.8980093,6.48710173 L14.1215684,17.6502649 C14.4342305,18.7070434 15.4427716,19.3656053 16.4918325,19.1980114 L27.8690982,17.419789 C33.9014592,16.4773159 40.064239,17.6170508 45.4090483,20.6798352 L57.9240406,27.8584787 L60.0098734,23.9727585 L47.4632764,16.794115 C41.2968025,13.2602626 34.1967527,11.9193882 27.2370263,13.0071943 L17.6611622,14.4891868 L15.7017434,7.63981875 L29.6704982,5.30184493 C35.9685189,4.25146801 42.422191,5.29341494 48.1269515,8.26549271 L66.5834047,17.8810781 L68.4796157,13.8965584 L50.0547655,4.28114158 C43.5496815,0.891947834 36.1883992,-0.275100175 29.0068232,0.922295803 L29.0068232,0.922127203 Z" id="Shape"></path>
                            <path d="M8.98193466,50.9747094 C8.55367943,50.9929797 8.15245179,51.1977239 7.8760363,51.539043 C7.8760363,51.539043 5.99102969,53.845382 4.08438376,56.7126833 C3.13106091,58.1463339 2.16730008,59.7219409 1.42119924,61.2749119 C0.675097929,62.8277625 0.0896071502,64.3106584 0.0896070347,65.8604989 C0.089607728,71.0023524 4.12373271,75.2201052 9.04964303,75.2201052 C13.9755523,75.2201052 17.9871097,71.0023524 17.9871097,65.8604989 C17.9871097,64.3106584 17.4241829,62.8277625 16.6780874,61.2749119 C15.9319826,59.7219409 14.9682252,58.1463339 14.0149023,56.7126833 C12.1082566,53.845382 10.2006807,51.539043 10.2006807,51.539043 C9.89880583,51.1663529 9.44972342,50.9582747 8.98193466,50.9743482 L8.98193466,50.9747094 Z M9.04964997,55.1841543 C9.71197728,56.0257783 10.2867947,56.6843883 11.50971,58.5234393 C12.4108666,59.8785865 13.302446,61.3439034 13.9472009,62.6858062 C14.5919522,64.0278293 14.940247,65.2685927 14.940247,65.8604989 C14.940247,69.2869564 12.3173189,72.0218133 9.04964419,72.0218133 C5.78196862,72.0218133 3.15904154,69.2869564 3.1590412,65.8604989 C3.1590412,65.2681111 3.50733821,64.0278293 4.15209305,62.6858062 C4.79684789,61.3439034 5.68843207,59.8785865 6.58958397,58.5234393 C7.81533034,56.6801742 8.38840888,56.0244539 9.04964419,55.1841543 L9.04964997,55.1841543 Z" id="Shape" fill-rule="nonzero"></path>
                        </g>
                    </g>
                </g>
            </g>
        </g>
    </g>
</svg>