
<svg width="46px" height="46px" viewBox="0 0 46 46" version="1.1" xmlns="http://www.w3.org/2000/svg" xmlns:xlink="http://www.w3.org/1999/xlink">
    <!-- Generator: Sketch 48.1 (47250) - http://www.bohemiancoding.com/sketch -->
    <desc>Created with Sketch.</desc>
    <defs>
        <polygon id="path-1" points="0 -0.000145111204 45.212 -0.000145111204 45.212 45.2048 0 45.2048"></polygon>
    </defs>
    <g id="Symbols" stroke="none" stroke-width="1" fill="none" fill-rule="evenodd">
        <g id="Bt_setting" transform="translate(2.000000, -34.000000)">
            <g id="Page-1" transform="translate(-2.000000, 34.000000)">
                <g id="Clip-2"></g>
                <path d="M22.6099,9.6053 C29.7889,9.6053 35.6059,15.4233 35.6059,22.6023 C35.6059,29.7793 29.7889,35.5993 22.6099,35.5993 C15.4309,35.5993 9.6129,29.7793 9.6129,22.6023 C9.6129,15.4233 15.4309,9.6053 22.6099,9.6053 M0.8429,27.4793 C0.2379,27.6983 -0.1311,28.3413 0.0429,28.9623 C0.5029,30.5923 1.1399,32.1483 1.9219,33.6143 C2.2309,34.1913 2.9479,34.3883 3.5429,34.1153 C5.0889,33.4063 7.0329,33.4293 9.0099,34.7343 C9.3139,34.9343 9.5949,35.2143 9.7949,35.5163 C11.1639,37.5913 11.1249,39.6213 10.3089,41.1983 C10.0099,41.7783 10.1849,42.5003 10.7459,42.8303 C12.4449,43.8283 14.2849,44.6153 16.2259,45.1613 C16.8519,45.3373 17.4959,44.9633 17.7069,44.3473 C18.4059,42.3053 20.3279,40.8323 22.6099,40.8323 C24.8909,40.8323 26.8139,42.3053 27.5119,44.3473 C27.7229,44.9603 28.3679,45.3373 28.9939,45.1613 C30.9089,44.6233 32.7249,43.8463 34.4089,42.8673 C34.9749,42.5373 35.1469,41.8063 34.8419,41.2273 C34.0159,39.6473 33.9669,37.6073 35.3389,35.5243 C35.5389,35.2223 35.8199,34.9393 36.1239,34.7393 C38.1299,33.4113 40.0909,33.4063 41.6449,34.1413 C42.2399,34.4213 42.9649,34.2273 43.2769,33.6473 C44.0669,32.1823 44.7039,30.6233 45.1689,28.9893 C45.3449,28.3633 44.9679,27.7123 44.3519,27.5003 C42.3179,26.7933 40.8549,24.8783 40.8549,22.6023 C40.8549,20.3263 42.3179,18.4113 44.3499,17.7043 C44.9649,17.4913 45.3449,16.8393 45.1689,16.2123 C44.6509,14.3833 43.9159,12.6503 42.9969,11.0343 C42.6899,10.4943 42.0159,10.2933 41.4419,10.5273 C40.4419,10.9383 39.2859,11.0443 38.0879,10.7383 C36.3369,10.2863 34.9049,8.8593 34.4419,7.1113 C34.1259,5.9083 34.2319,4.7463 34.6399,3.7413 C34.8719,3.1693 34.6719,2.4963 34.1309,2.1893 C32.5279,1.2833 30.8069,0.5553 28.9989,0.0433 C28.3699,-0.1327 27.7199,0.2433 27.5069,0.8593 C26.7999,2.8943 24.8849,4.3563 22.6099,4.3563 C20.3359,4.3563 18.4189,2.8943 17.7139,0.8623 C17.4989,0.2463 16.8469,-0.1327 16.2199,0.0433 C14.3809,0.5633 12.6369,1.3033 11.0129,2.2313 C10.4909,2.5303 10.2699,3.1853 10.4989,3.7433 C10.8809,4.6813 10.9979,5.7523 10.7539,6.8693 C10.3509,8.7043 8.8989,10.2393 7.0819,10.7253 C5.8919,11.0443 4.7489,10.9433 3.7559,10.5483 C3.1849,10.3203 2.5139,10.5223 2.2109,11.0583 C1.2929,12.6743 0.5599,14.4103 0.0459,16.2393 C-0.1311,16.8603 0.2409,17.5043 0.8459,17.7253 C2.8489,18.4473 4.2839,20.3493 4.2839,22.6023 C4.2839,24.8553 2.8489,26.7563 0.8429,27.4793" id="Fill-1" fill="#787878" mask="url(#mask-2)"></path>
            </g>
        </g>
    </g>
</svg>