
<svg width="20px" height="20px" viewBox="0 0 20 20" version="1.1" xmlns="http://www.w3.org/2000/svg" xmlns:xlink="http://www.w3.org/1999/xlink">
    <!-- Generator: Sketch 48.1 (47250) - http://www.bohemiancoding.com/sketch -->
    <desc>Created with Sketch.</desc>
    <defs></defs>
    <g id="Dashboard-final" stroke="none" stroke-width="1" fill="none" fill-rule="evenodd">
        <g id="DB-white-column-hidden-Copy-3" transform="translate(-23.000000, -85.000000)" fill="#FFFFFF" fill-rule="nonzero">
            <g id="noun_1386901_cc" transform="translate(23.000000, 85.000000)">
                <g id="Group">
                    <path d="M1.27622222,5.89222222 L1.27622222,6.23666667 C1.27622222,7.08266667 1.96844444,7.77466667 2.81422222,7.77466667 L2.99955556,7.77466667 C3.74666667,7.77466667 4.35222222,7.16911111 4.35222222,6.422 L4.35222222,5.89222222 C4.35222222,5.04622222 3.66,4.35422222 2.81422222,4.35422222 C1.96844444,4.35422222 1.27622222,5.04622222 1.27622222,5.89222222 Z M3.68288889,5.89222222 L3.68288889,6.422 C3.68288889,6.79866667 3.37644444,7.10511111 2.99977778,7.10511111 L2.81444444,7.10511111 C2.33555556,7.10511111 1.946,6.71555556 1.946,6.23666667 L1.946,5.89222222 C1.946,5.41333333 2.33555556,5.02377778 2.81444444,5.02377778 C3.29333333,5.02377778 3.68288889,5.41333333 3.68288889,5.89222222 Z" id="Shape"></path>
                    <path d="M3.96377778,8.44822222 L1.66466667,8.44822222 C0.746666667,8.44822222 0,9.19511111 0,10.1131111 L0,13.7517778 C0,13.9366667 0.15,14.0864444 0.334666667,14.0864444 C0.519333333,14.0864444 0.669333333,13.9364444 0.669333333,13.7517778 L0.669333333,10.1131111 C0.669333333,9.56422222 1.11577778,9.11777778 1.66444444,9.11777778 L3.96355556,9.11777778 C4.51244444,9.11777778 4.95866667,9.56444444 4.95866667,10.1131111 L4.95866667,13.7517778 C4.95866667,13.9366667 5.10866667,14.0864444 5.29333333,14.0864444 C5.47822222,14.0864444 5.628,13.9364444 5.628,13.7517778 L5.628,10.1131111 C5.62866667,9.19511111 4.88177778,8.44822222 3.96377778,8.44822222 Z" id="Shape"></path>
                    <path d="M3.852,13.9684444 L1.77644444,13.9684444 C1.59155556,13.9684444 1.44177778,14.1184444 1.44177778,14.3031111 L1.44177778,19.0511111 C1.44177778,19.236 1.59177778,19.3857778 1.77644444,19.3857778 C1.96133333,19.3857778 2.11111111,19.2357778 2.11111111,19.0511111 L2.11111111,14.6377778 L3.51711111,14.6377778 L3.51711111,19.0511111 C3.51711111,19.236 3.66711111,19.3857778 3.85177778,19.3857778 C4.03666667,19.3857778 4.18644444,19.2357778 4.18644444,19.0511111 L4.18644444,14.3033333 C4.18688889,14.1184444 4.03688889,13.9684444 3.852,13.9684444 Z" id="Shape"></path>
                    <path d="M10,4.35422222 C9.154,4.35422222 8.462,5.04644444 8.462,5.89222222 L8.462,6.23666667 C8.462,7.08266667 9.15422222,7.77466667 10,7.77466667 L10.1853333,7.77466667 C10.9324444,7.77466667 11.538,7.16911111 11.538,6.422 L11.538,5.89222222 C11.538,5.04622222 10.846,4.35422222 10,4.35422222 Z M10.8684444,6.422 C10.8684444,6.79866667 10.562,7.10511111 10.1853333,7.10511111 L10,7.10511111 C9.52111111,7.10511111 9.13155556,6.71555556 9.13155556,6.23666667 L9.13155556,5.89222222 C9.13155556,5.41333333 9.52111111,5.02377778 10,5.02377778 C10.4788889,5.02377778 10.8684444,5.41333333 10.8684444,5.89222222 L10.8684444,6.422 Z" id="Shape"></path>
                    <path d="M11.1495556,8.44822222 L8.85044444,8.44822222 C7.93244444,8.44822222 7.18555556,9.19511111 7.18555556,10.1131111 L7.18555556,13.7517778 C7.18555556,13.9366667 7.33555556,14.0864444 7.52022222,14.0864444 C7.70488889,14.0864444 7.85488889,13.9364444 7.85488889,13.7517778 L7.85488889,10.1131111 C7.85488889,9.56422222 8.30155556,9.11777778 8.85022222,9.11777778 L11.1491111,9.11777778 C11.698,9.11777778 12.1444444,9.56444444 12.1444444,10.1131111 L12.1444444,13.7517778 C12.1444444,13.9366667 12.2944444,14.0864444 12.4791111,14.0864444 C12.6637778,14.0864444 12.8137778,13.9364444 12.8137778,13.7517778 L12.8137778,10.1131111 C12.8144444,9.19511111 12.0675556,8.44822222 11.1495556,8.44822222 Z" id="Shape"></path>
                    <path d="M11.0375556,13.9684444 L8.96222222,13.9684444 C8.77733333,13.9684444 8.62755556,14.1184444 8.62755556,14.3031111 L8.62755556,19.0511111 C8.62755556,19.236 8.77755556,19.3857778 8.96222222,19.3857778 C9.14688889,19.3857778 9.29688889,19.2357778 9.29688889,19.0511111 L9.29688889,14.6377778 L10.7026667,14.6377778 L10.7026667,19.0511111 C10.7026667,19.236 10.8526667,19.3857778 11.0373333,19.3857778 C11.222,19.3857778 11.372,19.2357778 11.372,19.0511111 L11.372,14.3033333 C11.3724444,14.1184444 11.2224444,13.9684444 11.0375556,13.9684444 Z" id="Shape"></path>
                    <path d="M15.6475556,5.89222222 L15.6475556,6.23666667 C15.6475556,7.08266667 16.3397778,7.77466667 17.1855556,7.77466667 L17.3708889,7.77466667 C18.118,7.77466667 18.7235556,7.16911111 18.7235556,6.422 L18.7235556,5.89222222 C18.7235556,5.04622222 18.0313333,4.35422222 17.1855556,4.35422222 C16.3397778,4.35422222 15.6475556,5.04622222 15.6475556,5.89222222 Z M16.3171111,5.89222222 C16.3171111,5.41333333 16.7066667,5.02377778 17.1855556,5.02377778 C17.6644444,5.02377778 18.054,5.41333333 18.054,5.89222222 L18.054,6.422 C18.054,6.79866667 17.7475556,7.10511111 17.3708889,7.10511111 L17.1855556,7.10511111 C16.7066667,7.10511111 16.3171111,6.71555556 16.3171111,6.23666667 L16.3171111,5.89222222 Z" id="Shape"></path>
                    <path d="M18.3353333,8.44822222 L16.0362222,8.44822222 C15.1182222,8.44822222 14.3715556,9.19511111 14.3715556,10.1131111 L14.3715556,13.7517778 C14.3715556,13.9366667 14.5215556,14.0864444 14.7062222,14.0864444 C14.8911111,14.0864444 15.0408889,13.9364444 15.0408889,13.7517778 L15.0408889,10.1131111 C15.0408889,9.56422222 15.4873333,9.11777778 16.036,9.11777778 L18.3351111,9.11777778 C18.884,9.11777778 19.3302222,9.56444444 19.3302222,10.1131111 L19.3302222,13.7517778 C19.3302222,13.9366667 19.4802222,14.0864444 19.6648889,14.0864444 C19.8497778,14.0864444 19.9995556,13.9364444 19.9995556,13.7517778 L19.9995556,10.1131111 C20,9.19511111 19.2533333,8.44822222 18.3353333,8.44822222 Z" id="Shape"></path>
                    <path d="M18.2235556,13.9684444 L16.148,13.9684444 C15.9631111,13.9684444 15.8133333,14.1184444 15.8133333,14.3031111 L15.8133333,19.0511111 C15.8133333,19.236 15.9633333,19.3857778 16.148,19.3857778 C16.3328889,19.3857778 16.4826667,19.2357778 16.4826667,19.0511111 L16.4826667,14.6377778 L17.8886667,14.6377778 L17.8886667,19.0511111 C17.8886667,19.236 18.0386667,19.3857778 18.2233333,19.3857778 C18.4082222,19.3857778 18.558,19.2357778 18.558,19.0511111 L18.558,14.3033333 C18.5582222,14.1184444 18.4082222,13.9684444 18.2235556,13.9684444 Z" id="Shape"></path>
                    <path d="M7.94511111,2.23733333 L7.94511111,1.70755556 C7.94511111,0.861555556 7.25288889,0.169555556 6.40711111,0.169555556 C5.56111111,0.169555556 4.86911111,0.861777778 4.86911111,1.70755556 L4.86911111,2.052 C4.86911111,2.898 5.56133333,3.59 6.40711111,3.59 L6.59244444,3.59 C7.33955556,3.59 7.94511111,2.98444444 7.94511111,2.23733333 Z M7.27577778,2.23733333 C7.27577778,2.614 6.96933333,2.92044444 6.59266667,2.92044444 L6.40733333,2.92044444 C5.92844444,2.92044444 5.53888889,2.53088889 5.53888889,2.052 L5.53888889,1.70755556 C5.53888889,1.22866667 5.92844444,0.839111111 6.40733333,0.839111111 C6.88622222,0.839111111 7.27577778,1.22866667 7.27577778,1.70755556 L7.27577778,2.23733333 Z" id="Shape"></path>
                    <path d="M15.1308889,2.23733333 L15.1308889,1.70755556 C15.1308889,0.861555556 14.4386667,0.169555556 13.5928889,0.169555556 C12.7468889,0.169555556 12.0548889,0.861777778 12.0548889,1.70755556 L12.0548889,2.052 C12.0548889,2.898 12.7471111,3.59 13.5928889,3.59 L13.7782222,3.59 C14.5253333,3.59 15.1308889,2.98444444 15.1308889,2.23733333 Z M14.4613333,2.23733333 C14.4613333,2.614 14.1548889,2.92044444 13.7782222,2.92044444 L13.5928889,2.92044444 C13.114,2.92044444 12.7244444,2.53088889 12.7244444,2.052 L12.7244444,1.70755556 C12.7244444,1.22866667 13.114,0.839111111 13.5928889,0.839111111 C14.0717778,0.839111111 14.4613333,1.22866667 14.4613333,1.70755556 L14.4613333,2.23733333 Z" id="Shape"></path>
                </g>
            </g>
        </g>
    </g>
</svg>